<svg width="400" height="400" viewBox="0 0 400 400" fill="none" xmlns="http://www.w3.org/2000/svg">
<g clip-path="url(#clip0_7:345)">
<path d="M250.355 278.936H293.527L224.609 100.076H176.876L107.959 278.936H151.134L162.397 248.639H227.514L215.727 215.114H172.851L200.742 138.155L250.355 278.936ZM392.718 146.513C391.184 140.988 385.477 137.743 379.929 139.283C374.402 140.818 371.163 146.543 372.698 152.069C377.03 167.671 379.226 183.798 379.226 200.001C379.226 298.826 298.825 379.223 200 379.223C101.175 379.223 20.7759 298.826 20.7759 200.001C20.7759 101.174 101.175 20.7751 200 20.7751C241.864 20.7751 282.372 35.647 314.343 62.1127C313.099 65.0815 312.408 68.3393 312.408 71.7581C312.408 85.5628 323.599 96.7535 337.404 96.7535C351.208 96.7535 362.399 85.5628 362.399 71.7581C362.399 57.9534 351.208 46.7627 337.404 46.7627C334.746 46.7627 332.188 47.1861 329.785 47.9549C293.785 17.2751 247.677 0 200 0C89.7199 0 -0.000793457 89.7191 -0.000793457 200.001C-0.000793457 310.281 89.7199 400 200 400C310.28 400 400.001 310.281 400.001 200.001C400.001 181.919 397.552 163.923 392.718 146.513Z" fill="#112B49"/>
</g>
<defs>
<clipPath id="clip0_7:345">
<rect width="400" height="400" fill="white"/>
</clipPath>
</defs>
</svg>
