<svg width="400" height="400" viewBox="0 0 400 400" fill="none" xmlns="http://www.w3.org/2000/svg">
<path d="M199.784 400L55.748 360.015L23.6501 0H376.35L344.218 359.958L199.784 400Z" fill="#264DE4"/>
<path d="M316.71 337.037L344.168 29.4365H200V369.394L316.71 337.037Z" fill="#2965F1"/>
<path d="M97.2338 162.961L101.191 207.115H200V162.961H97.2338Z" fill="#EBEBEB"/>
<path d="M89.2819 73.5913L93.2957 117.746H200V73.5913H89.2819Z" fill="#EBEBEB"/>
<path d="M200 277.634L199.806 277.686L150.631 264.408L147.488 229.192H103.164L109.35 298.521L199.797 323.63L200 323.573V277.634Z" fill="#EBEBEB"/>
<path d="M302.483 162.961L310.455 73.5913H199.847V117.746H262.065L258.048 162.961H199.847V207.115H254.218L249.093 264.379L199.847 277.671V323.608L290.366 298.521L291.03 291.061L301.406 174.817L302.483 162.961Z" fill="white"/>
</svg>
