<svg width="691" height="400" viewBox="0 0 691 400" fill="none" xmlns="http://www.w3.org/2000/svg">
<g clip-path="url(#clip0_7:231)">
<path d="M4.49438 255.955V179.101H100.449V174.607H4.49438V104.494H106.517V100H0V260.449H107.416V255.955H4.49438ZM193.933 144.944L154.157 197.303L115.281 144.944H109.438L151.461 200.674L105.393 260.449H110.787L154.157 204.045L197.753 260.449H203.371L157.079 200.674L199.326 144.944H193.933ZM216.854 300V228.09H217.303C220 238.577 225.318 247.004 233.258 253.371C241.199 259.738 251.311 262.921 263.596 262.921C271.536 262.921 278.577 261.311 284.719 258.09C290.861 254.869 295.992 250.487 300.112 244.944C304.232 239.401 307.378 232.959 309.551 225.618C311.723 218.277 312.809 210.562 312.809 202.472C312.809 193.783 311.685 185.768 309.438 178.427C307.191 171.086 303.933 164.719 299.663 159.326C295.393 153.933 290.225 149.738 284.157 146.742C278.09 143.745 271.236 142.247 263.596 142.247C257.753 142.247 252.322 143.109 247.303 144.831C242.285 146.554 237.828 148.989 233.933 152.135C230.037 155.281 226.667 158.989 223.82 163.258C220.974 167.528 218.802 172.21 217.303 177.303H216.854V144.944H212.36V300H216.854ZM263.596 258.652C249.513 258.652 238.202 253.82 229.663 244.157C221.124 234.494 216.854 220.599 216.854 202.472C216.854 194.981 217.903 187.865 220 181.124C222.097 174.382 225.131 168.464 229.101 163.371C233.071 158.277 237.977 154.232 243.82 151.236C249.663 148.24 256.255 146.742 263.596 146.742C271.086 146.742 277.64 148.24 283.258 151.236C288.876 154.232 293.521 158.315 297.191 163.483C300.861 168.652 303.633 174.569 305.506 181.236C307.378 187.903 308.315 194.981 308.315 202.472C308.315 209.214 307.453 215.918 305.73 222.584C304.007 229.251 301.348 235.243 297.753 240.562C294.157 245.88 289.551 250.225 283.933 253.595C278.315 256.966 271.536 258.652 263.596 258.652ZM337.528 260.449V195.056C337.528 188.764 338.427 182.622 340.225 176.629C342.022 170.637 344.794 165.356 348.539 160.787C352.285 156.217 357.041 152.622 362.809 150C368.577 147.378 375.431 146.292 383.371 146.742V142.247C376.479 142.097 370.449 142.846 365.281 144.494C360.112 146.142 355.655 148.389 351.91 151.236C348.165 154.082 345.169 157.416 342.921 161.236C340.674 165.056 339.026 169.139 337.978 173.483H337.528V144.944H333.034V260.449H337.528ZM388.989 203.596H485.618C485.918 195.655 485.131 188.015 483.258 180.674C481.386 173.333 478.39 166.817 474.27 161.124C470.15 155.431 464.831 150.861 458.315 147.416C451.798 143.97 444.045 142.247 435.056 142.247C428.614 142.247 422.322 143.595 416.18 146.292C410.037 148.989 404.644 152.921 400 158.09C395.356 163.258 391.61 169.588 388.764 177.079C385.918 184.569 384.494 193.109 384.494 202.697C384.494 211.236 385.468 219.213 387.416 226.629C389.363 234.045 392.36 240.487 396.404 245.955C400.449 251.423 405.655 255.655 412.022 258.652C418.39 261.648 426.067 263.071 435.056 262.921C448.24 262.921 459.326 259.214 468.315 251.798C477.303 244.382 482.622 233.933 484.27 220.449H479.775C477.828 233.184 472.846 242.734 464.831 249.101C456.816 255.468 446.742 258.652 434.607 258.652C426.367 258.652 419.401 257.228 413.708 254.382C408.015 251.536 403.371 247.64 399.775 242.697C396.18 237.753 393.521 231.948 391.798 225.281C390.075 218.614 389.139 211.386 388.989 203.596ZM481.124 199.101H388.989C389.438 191.011 390.936 183.745 393.483 177.303C396.03 170.861 399.363 165.356 403.483 160.787C407.603 156.217 412.397 152.734 417.865 150.337C423.333 147.94 429.213 146.742 435.506 146.742C442.996 146.742 449.588 148.127 455.281 150.899C460.974 153.67 465.73 157.453 469.551 162.247C473.371 167.041 476.255 172.622 478.202 178.989C480.15 185.356 481.124 192.06 481.124 199.101ZM578.876 179.101H583.371C583.371 166.217 579.625 156.854 572.135 151.011C564.644 145.169 554.457 142.247 541.573 142.247C534.382 142.247 528.315 143.146 523.371 144.944C518.427 146.742 514.382 149.064 511.236 151.91C508.09 154.757 505.843 157.903 504.494 161.348C503.146 164.794 502.472 168.09 502.472 171.236C502.472 177.528 503.595 182.547 505.843 186.292C508.09 190.037 511.61 192.959 516.404 195.056C519.7 196.554 523.446 197.903 527.64 199.101C531.835 200.3 536.704 201.573 542.247 202.921C547.191 204.12 552.06 205.318 556.854 206.517C561.648 207.715 565.88 209.326 569.551 211.348C573.221 213.371 576.217 215.955 578.539 219.101C580.861 222.247 582.022 226.367 582.022 231.461C582.022 236.405 580.861 240.599 578.539 244.045C576.217 247.491 573.258 250.3 569.663 252.472C566.067 254.644 562.06 256.217 557.64 257.191C553.221 258.165 548.914 258.652 544.719 258.652C531.086 258.652 520.637 255.618 513.371 249.551C506.105 243.483 502.472 233.933 502.472 220.899H497.977C497.977 235.431 501.91 246.067 509.775 252.809C517.64 259.551 529.288 262.921 544.719 262.921C549.663 262.921 554.644 262.36 559.663 261.236C564.682 260.112 569.176 258.277 573.146 255.73C577.116 253.184 580.337 249.888 582.809 245.843C585.281 241.798 586.517 236.854 586.517 231.011C586.517 225.468 585.431 220.974 583.258 217.528C581.086 214.082 578.24 211.236 574.719 208.989C571.198 206.742 567.228 204.981 562.809 203.708C558.389 202.434 553.933 201.199 549.438 200C543.146 198.352 537.64 196.929 532.921 195.73C528.202 194.532 523.82 193.109 519.775 191.461C515.88 189.813 512.772 187.453 510.449 184.382C508.127 181.311 506.966 176.929 506.966 171.236C506.966 170.187 507.266 168.315 507.865 165.618C508.464 162.921 509.888 160.187 512.135 157.416C514.382 154.644 517.828 152.172 522.472 150C527.116 147.828 533.483 146.742 541.573 146.742C547.116 146.742 552.172 147.341 556.742 148.539C561.311 149.738 565.243 151.648 568.539 154.27C571.835 156.891 574.382 160.225 576.18 164.27C577.978 168.315 578.876 173.258 578.876 179.101ZM682.921 179.101H687.416C687.416 166.217 683.67 156.854 676.18 151.011C668.689 145.169 658.502 142.247 645.618 142.247C638.427 142.247 632.36 143.146 627.416 144.944C622.472 146.742 618.427 149.064 615.281 151.91C612.135 154.757 609.888 157.903 608.539 161.348C607.191 164.794 606.517 168.09 606.517 171.236C606.517 177.528 607.64 182.547 609.888 186.292C612.135 190.037 615.655 192.959 620.449 195.056C623.745 196.554 627.491 197.903 631.685 199.101C635.88 200.3 640.749 201.573 646.292 202.921C651.236 204.12 656.105 205.318 660.899 206.517C665.693 207.715 669.925 209.326 673.595 211.348C677.266 213.371 680.262 215.955 682.584 219.101C684.906 222.247 686.067 226.367 686.067 231.461C686.067 236.405 684.906 240.599 682.584 244.045C680.262 247.491 677.303 250.3 673.708 252.472C670.112 254.644 666.105 256.217 661.685 257.191C657.266 258.165 652.959 258.652 648.764 258.652C635.131 258.652 624.682 255.618 617.416 249.551C610.15 243.483 606.517 233.933 606.517 220.899H602.022C602.022 235.431 605.955 246.067 613.82 252.809C621.685 259.551 633.333 262.921 648.764 262.921C653.708 262.921 658.689 262.36 663.708 261.236C668.727 260.112 673.221 258.277 677.191 255.73C681.161 253.184 684.382 249.888 686.854 245.843C689.326 241.798 690.562 236.854 690.562 231.011C690.562 225.468 689.476 220.974 687.303 217.528C685.131 214.082 682.285 211.236 678.764 208.989C675.243 206.742 671.273 204.981 666.854 203.708C662.434 202.434 657.978 201.199 653.483 200C647.191 198.352 641.685 196.929 636.966 195.73C632.247 194.532 627.865 193.109 623.82 191.461C619.925 189.813 616.816 187.453 614.494 184.382C612.172 181.311 611.011 176.929 611.011 171.236C611.011 170.187 611.311 168.315 611.91 165.618C612.509 162.921 613.933 160.187 616.18 157.416C618.427 154.644 621.873 152.172 626.517 150C631.161 147.828 637.528 146.742 645.618 146.742C651.161 146.742 656.217 147.341 660.786 148.539C665.356 149.738 669.288 151.648 672.584 154.27C675.88 156.891 678.427 160.225 680.225 164.27C682.022 168.315 682.921 173.258 682.921 179.101Z" fill="#222222"/>
</g>
<defs>
<clipPath id="clip0_7:231">
<rect width="690.562" height="400" fill="white"/>
</clipPath>
</defs>
</svg>
