<svg width="1382" height="400" viewBox="0 0 1382 400" fill="none" xmlns="http://www.w3.org/2000/svg">
<g clip-path="url(#clip0_7:231)">
<path d="M9.61297 311.91V158.202H201.523V149.213H9.61297V8.98876H213.658V0H0.624207V320.899H215.456V311.91H9.61297ZM388.489 89.8876L308.939 194.607L231.186 89.8876H219.501L303.546 201.348L211.411 320.899H222.197L308.939 208.09L396.13 320.899H407.366L314.781 201.348L399.276 89.8876H388.489ZM434.332 400V256.18H435.231C440.624 277.154 451.261 294.007 467.141 306.742C483.021 319.476 503.246 325.843 527.815 325.843C543.695 325.843 557.778 322.622 570.062 316.18C582.347 309.738 592.609 300.974 600.849 289.888C609.089 278.801 615.381 265.918 619.725 251.236C624.07 236.554 626.242 221.124 626.242 204.944C626.242 187.565 623.995 171.536 619.501 156.854C615.006 142.172 608.489 129.438 599.95 118.652C591.411 107.865 581.074 99.4757 568.939 93.4831C556.804 87.4906 543.096 84.4944 527.815 84.4944C516.13 84.4944 505.268 86.2172 495.231 89.6629C485.193 93.1086 476.28 97.9775 468.489 104.27C460.699 110.562 453.958 117.977 448.265 126.517C442.572 135.056 438.227 144.419 435.231 154.607H434.332V89.8876H425.343V400H434.332ZM527.815 317.303C499.65 317.303 477.029 307.641 459.95 288.315C442.871 268.989 434.332 241.199 434.332 204.944C434.332 189.962 436.429 175.73 440.624 162.247C444.819 148.764 450.886 136.929 458.826 126.742C466.767 116.554 476.579 108.464 488.265 102.472C499.95 96.4794 513.133 93.4831 527.815 93.4831C542.797 93.4831 555.905 96.4794 567.141 102.472C578.377 108.464 587.665 116.629 595.006 126.966C602.347 137.303 607.89 149.139 611.635 162.472C615.381 175.805 617.253 189.962 617.253 204.944C617.253 218.427 615.531 231.835 612.085 245.169C608.639 258.502 603.321 270.487 596.13 281.124C588.939 291.76 579.725 300.449 568.489 307.191C557.253 313.933 543.695 317.303 527.815 317.303ZM675.68 320.899V190.112C675.68 177.528 677.478 165.243 681.074 153.258C684.669 141.273 690.212 130.712 697.703 121.573C705.194 112.434 714.706 105.243 726.242 100C737.778 94.7565 751.486 92.5843 767.366 93.4831V84.4944C753.583 84.1948 741.523 85.6929 731.186 88.9888C720.849 92.2847 711.935 96.779 704.444 102.472C696.954 108.165 690.961 114.831 686.467 122.472C681.972 130.112 678.677 138.277 676.579 146.966H675.68V89.8876H666.692V320.899H675.68ZM778.602 207.191H971.86C972.459 191.311 970.886 176.03 967.141 161.348C963.396 146.667 957.403 133.633 949.163 122.247C940.924 110.861 930.287 101.723 917.253 94.8315C904.22 87.94 888.714 84.4944 870.737 84.4944C857.853 84.4944 845.268 87.191 832.984 92.5843C820.699 97.9776 809.913 105.843 800.624 116.18C791.336 126.517 783.845 139.176 778.152 154.157C772.459 169.139 769.613 186.217 769.613 205.393C769.613 222.472 771.561 238.427 775.456 253.258C779.351 268.09 785.343 280.974 793.433 291.91C801.523 302.846 811.935 311.311 824.669 317.303C837.403 323.296 852.759 326.142 870.737 325.843C897.104 325.843 919.276 318.427 937.253 303.595C955.231 288.764 965.868 267.865 969.163 240.899H960.175C956.28 266.367 946.317 285.468 930.287 298.202C914.257 310.936 894.107 317.303 869.838 317.303C853.358 317.303 839.426 314.457 828.04 308.764C816.654 303.071 807.366 295.281 800.175 285.393C792.984 275.506 787.665 263.895 784.22 250.562C780.774 237.228 778.901 222.772 778.602 207.191ZM962.871 198.202H778.602C779.501 182.022 782.497 167.491 787.59 154.607C792.684 141.723 799.351 130.712 807.59 121.573C815.83 112.434 825.418 105.468 836.355 100.674C847.291 95.8801 859.051 93.4831 871.635 93.4831C886.617 93.4831 899.8 96.2547 911.186 101.798C922.572 107.341 932.085 114.906 939.725 124.494C947.366 134.082 953.133 145.243 957.029 157.978C960.924 170.712 962.871 184.12 962.871 198.202ZM1158.38 158.202H1167.37C1167.37 132.434 1159.88 113.708 1144.89 102.022C1129.91 90.337 1109.54 84.4944 1083.77 84.4944C1069.39 84.4944 1057.25 86.2921 1047.37 89.8876C1037.48 93.4832 1029.39 98.1273 1023.1 103.82C1016.8 109.513 1012.31 115.805 1009.61 122.697C1006.92 129.588 1005.57 136.18 1005.57 142.472C1005.57 155.056 1007.82 165.094 1012.31 172.584C1016.8 180.075 1023.85 185.918 1033.43 190.112C1040.02 193.109 1047.52 195.805 1055.91 198.202C1064.29 200.599 1074.03 203.146 1085.12 205.843C1095.01 208.24 1104.74 210.637 1114.33 213.034C1123.92 215.431 1132.38 218.652 1139.73 222.697C1147.07 226.742 1153.06 231.91 1157.7 238.202C1162.35 244.494 1164.67 252.734 1164.67 262.921C1164.67 272.809 1162.35 281.198 1157.7 288.09C1153.06 294.981 1147.14 300.599 1139.95 304.944C1132.76 309.288 1124.74 312.434 1115.91 314.382C1107.07 316.33 1098.45 317.303 1090.06 317.303C1062.8 317.303 1041.9 311.236 1027.37 299.101C1012.83 286.966 1005.57 267.865 1005.57 241.798H996.579C996.579 270.862 1004.44 292.135 1020.17 305.618C1035.91 319.101 1059.2 325.843 1090.06 325.843C1099.95 325.843 1109.91 324.719 1119.95 322.472C1129.99 320.225 1138.98 316.554 1146.92 311.461C1154.86 306.367 1161.3 299.775 1166.24 291.685C1171.19 283.595 1173.66 273.708 1173.66 262.022C1173.66 250.936 1171.49 241.948 1167.14 235.056C1162.8 228.165 1157.1 222.472 1150.06 217.978C1143.02 213.483 1135.08 209.963 1126.24 207.416C1117.4 204.869 1108.49 202.397 1099.5 200C1086.92 196.704 1075.91 193.858 1066.47 191.461C1057.03 189.064 1048.26 186.217 1040.17 182.921C1032.38 179.625 1026.17 174.906 1021.52 168.764C1016.88 162.622 1014.56 153.858 1014.56 142.472C1014.56 140.375 1015.16 136.629 1016.35 131.236C1017.55 125.843 1020.4 120.375 1024.89 114.831C1029.39 109.288 1036.28 104.345 1045.57 100C1054.86 95.6554 1067.59 93.4831 1083.77 93.4831C1094.86 93.4831 1104.97 94.6816 1114.11 97.0786C1123.25 99.4757 1131.11 103.296 1137.7 108.539C1144.29 113.783 1149.39 120.449 1152.98 128.539C1156.58 136.629 1158.38 146.517 1158.38 158.202ZM1366.47 158.202H1375.46C1375.46 132.434 1367.97 113.708 1352.98 102.022C1338 90.337 1317.63 84.4944 1291.86 84.4944C1277.48 84.4944 1265.34 86.2921 1255.46 89.8876C1245.57 93.4832 1237.48 98.1273 1231.19 103.82C1224.89 109.513 1220.4 115.805 1217.7 122.697C1215.01 129.588 1213.66 136.18 1213.66 142.472C1213.66 155.056 1215.9 165.094 1220.4 172.584C1224.89 180.075 1231.94 185.918 1241.52 190.112C1248.11 193.109 1255.61 195.805 1263.99 198.202C1272.38 200.599 1282.12 203.146 1293.21 205.843C1303.1 208.24 1312.83 210.637 1322.42 213.034C1332.01 215.431 1340.47 218.652 1347.82 222.697C1355.16 226.742 1361.15 231.91 1365.79 238.202C1370.44 244.494 1372.76 252.734 1372.76 262.921C1372.76 272.809 1370.44 281.198 1365.79 288.09C1361.15 294.981 1355.23 300.599 1348.04 304.944C1340.85 309.288 1332.83 312.434 1323.99 314.382C1315.16 316.33 1306.54 317.303 1298.15 317.303C1270.89 317.303 1249.99 311.236 1235.46 299.101C1220.92 286.966 1213.66 267.865 1213.66 241.798H1204.67C1204.67 270.862 1212.53 292.135 1228.26 305.618C1244 319.101 1267.29 325.843 1298.15 325.843C1308.04 325.843 1318 324.719 1328.04 322.472C1338.08 320.225 1347.07 316.554 1355.01 311.461C1362.95 306.367 1369.39 299.775 1374.33 291.685C1379.28 283.595 1381.75 273.708 1381.75 262.022C1381.75 250.936 1379.58 241.948 1375.23 235.056C1370.89 228.165 1365.19 222.472 1358.15 217.978C1351.11 213.483 1343.17 209.963 1334.33 207.416C1325.49 204.869 1316.58 202.397 1307.59 200C1295.01 196.704 1283.99 193.858 1274.56 191.461C1265.12 189.064 1256.35 186.217 1248.26 182.921C1240.47 179.625 1234.26 174.906 1229.61 168.764C1224.97 162.622 1222.65 153.858 1222.65 142.472C1222.65 140.375 1223.25 136.629 1224.44 131.236C1225.64 125.843 1228.49 120.375 1232.98 114.831C1237.48 109.288 1244.37 104.345 1253.66 100C1262.95 95.6554 1275.68 93.4831 1291.86 93.4831C1302.95 93.4831 1313.06 94.6816 1322.2 97.0786C1331.34 99.4757 1339.2 103.296 1345.79 108.539C1352.38 113.783 1357.48 120.449 1361.07 128.539C1364.67 136.629 1366.47 146.517 1366.47 158.202Z" fill="#222222"/>
</g>
<defs>
<clipPath id="clip0_7:231">
<rect width="1381.12" height="400" fill="white" transform="translate(0.624207)"/>
</clipPath>
</defs>
</svg>
