<svg width="1382" height="400" viewBox="0 0 1382 400" fill="none" xmlns="http://www.w3.org/2000/svg">
<g clip-path="url(#clip0_7:231)">
<path d="M8.98876 311.91V158.202H200.899V149.213H8.98876V8.98876H213.034V0H0V320.899H214.831V311.91H8.98876ZM387.865 89.8876L308.315 194.607L230.562 89.8876H218.876L302.921 201.348L210.787 320.899H221.573L308.315 208.09L395.506 320.899H406.742L314.157 201.348L398.652 89.8876H387.865ZM433.708 400V256.18H434.607C440 277.154 450.637 294.007 466.517 306.742C482.397 319.476 502.622 325.843 527.191 325.843C543.071 325.843 557.153 322.622 569.438 316.18C581.723 309.738 591.985 300.974 600.225 289.888C608.464 278.801 614.756 265.918 619.101 251.236C623.446 236.554 625.618 221.124 625.618 204.944C625.618 187.565 623.371 171.536 618.876 156.854C614.382 142.172 607.865 129.438 599.326 118.652C590.786 107.865 580.449 99.4757 568.315 93.4831C556.18 87.4906 542.472 84.4944 527.191 84.4944C515.506 84.4944 504.644 86.2172 494.607 89.6629C484.569 93.1086 475.655 97.9775 467.865 104.27C460.075 110.562 453.333 117.977 447.64 126.517C441.948 135.056 437.603 144.419 434.607 154.607H433.708V89.8876H424.719V400H433.708ZM527.191 317.303C499.026 317.303 476.405 307.641 459.326 288.315C442.247 268.989 433.708 241.199 433.708 204.944C433.708 189.962 435.805 175.73 440 162.247C444.195 148.764 450.262 136.929 458.202 126.742C466.142 116.554 475.955 108.464 487.64 102.472C499.326 96.4794 512.509 93.4831 527.191 93.4831C542.172 93.4831 555.281 96.4794 566.517 102.472C577.753 108.464 587.041 116.629 594.382 126.966C601.723 137.303 607.266 149.139 611.011 162.472C614.757 175.805 616.629 189.962 616.629 204.944C616.629 218.427 614.906 231.835 611.461 245.169C608.015 258.502 602.697 270.487 595.506 281.124C588.315 291.76 579.101 300.449 567.865 307.191C556.629 313.933 543.071 317.303 527.191 317.303ZM675.056 320.899V190.112C675.056 177.528 676.854 165.243 680.449 153.258C684.045 141.273 689.588 130.712 697.079 121.573C704.569 112.434 714.082 105.243 725.618 100C737.154 94.7565 750.861 92.5843 766.742 93.4831V84.4944C752.959 84.1948 740.899 85.6929 730.562 88.9888C720.225 92.2847 711.311 96.779 703.82 102.472C696.33 108.165 690.337 114.831 685.843 122.472C681.348 130.112 678.052 138.277 675.955 146.966H675.056V89.8876H666.067V320.899H675.056ZM777.978 207.191H971.236C971.835 191.311 970.262 176.03 966.517 161.348C962.771 146.667 956.779 133.633 948.539 122.247C940.3 110.861 929.663 101.723 916.629 94.8315C903.595 87.94 888.09 84.4944 870.112 84.4944C857.228 84.4944 844.644 87.191 832.36 92.5843C820.075 97.9776 809.288 105.843 800 116.18C790.712 126.517 783.221 139.176 777.528 154.157C771.835 169.139 768.989 186.217 768.989 205.393C768.989 222.472 770.936 238.427 774.831 253.258C778.727 268.09 784.719 280.974 792.809 291.91C800.899 302.846 811.311 311.311 824.045 317.303C836.779 323.296 852.135 326.142 870.112 325.843C896.48 325.843 918.652 318.427 936.629 303.595C954.607 288.764 965.243 267.865 968.539 240.899H959.55C955.655 266.367 945.693 285.468 929.663 298.202C913.633 310.936 893.483 317.303 869.213 317.303C852.734 317.303 838.802 314.457 827.416 308.764C816.03 303.071 806.742 295.281 799.55 285.393C792.359 275.506 787.041 263.895 783.595 250.562C780.15 237.228 778.277 222.772 777.978 207.191ZM962.247 198.202H777.978C778.876 182.022 781.873 167.491 786.966 154.607C792.06 141.723 798.727 130.712 806.966 121.573C815.206 112.434 824.794 105.468 835.73 100.674C846.667 95.8801 858.427 93.4831 871.011 93.4831C885.993 93.4831 899.176 96.2547 910.562 101.798C921.948 107.341 931.461 114.906 939.101 124.494C946.742 134.082 952.509 145.243 956.404 157.978C960.3 170.712 962.247 184.12 962.247 198.202ZM1157.75 158.202H1166.74C1166.74 132.434 1159.25 113.708 1144.27 102.022C1129.29 90.337 1108.91 84.4944 1083.15 84.4944C1068.76 84.4944 1056.63 86.2921 1046.74 89.8876C1036.85 93.4832 1028.76 98.1273 1022.47 103.82C1016.18 109.513 1011.69 115.805 1008.99 122.697C1006.29 129.588 1004.94 136.18 1004.94 142.472C1004.94 155.056 1007.19 165.094 1011.69 172.584C1016.18 180.075 1023.22 185.918 1032.81 190.112C1039.4 193.109 1046.89 195.805 1055.28 198.202C1063.67 200.599 1073.41 203.146 1084.49 205.843C1094.38 208.24 1104.12 210.637 1113.71 213.034C1123.3 215.431 1131.76 218.652 1139.1 222.697C1146.44 226.742 1152.43 231.91 1157.08 238.202C1161.72 244.494 1164.04 252.734 1164.04 262.921C1164.04 272.809 1161.72 281.198 1157.08 288.09C1152.43 294.981 1146.52 300.599 1139.33 304.944C1132.13 309.288 1124.12 312.434 1115.28 314.382C1106.44 316.33 1097.83 317.303 1089.44 317.303C1062.17 317.303 1041.27 311.236 1026.74 299.101C1012.21 286.966 1004.94 267.865 1004.94 241.798H995.955C995.955 270.862 1003.82 292.135 1019.55 305.618C1035.28 319.101 1058.58 325.843 1089.44 325.843C1099.33 325.843 1109.29 324.719 1119.33 322.472C1129.36 320.225 1138.35 316.554 1146.29 311.461C1154.23 306.367 1160.67 299.775 1165.62 291.685C1170.56 283.595 1173.03 273.708 1173.03 262.022C1173.03 250.936 1170.86 241.948 1166.52 235.056C1162.17 228.165 1156.48 222.472 1149.44 217.978C1142.4 213.483 1134.46 209.963 1125.62 207.416C1116.78 204.869 1107.87 202.397 1098.88 200C1086.29 196.704 1075.28 193.858 1065.84 191.461C1056.4 189.064 1047.64 186.217 1039.55 182.921C1031.76 179.625 1025.54 174.906 1020.9 168.764C1016.25 162.622 1013.93 153.858 1013.93 142.472C1013.93 140.375 1014.53 136.629 1015.73 131.236C1016.93 125.843 1019.78 120.375 1024.27 114.831C1028.76 109.288 1035.66 104.345 1044.94 100C1054.23 95.6554 1066.97 93.4831 1083.15 93.4831C1094.23 93.4831 1104.34 94.6816 1113.48 97.0786C1122.62 99.4757 1130.49 103.296 1137.08 108.539C1143.67 113.783 1148.76 120.449 1152.36 128.539C1155.96 136.629 1157.75 146.517 1157.75 158.202ZM1365.84 158.202H1374.83C1374.83 132.434 1367.34 113.708 1352.36 102.022C1337.38 90.337 1317 84.4944 1291.24 84.4944C1276.85 84.4944 1264.72 86.2921 1254.83 89.8876C1244.94 93.4832 1236.85 98.1273 1230.56 103.82C1224.27 109.513 1219.78 115.805 1217.08 122.697C1214.38 129.588 1213.03 136.18 1213.03 142.472C1213.03 155.056 1215.28 165.094 1219.78 172.584C1224.27 180.075 1231.31 185.918 1240.9 190.112C1247.49 193.109 1254.98 195.805 1263.37 198.202C1271.76 200.599 1281.5 203.146 1292.58 205.843C1302.47 208.24 1312.21 210.637 1321.8 213.034C1331.39 215.431 1339.85 218.652 1347.19 222.697C1354.53 226.742 1360.52 231.91 1365.17 238.202C1369.81 244.494 1372.13 252.734 1372.13 262.921C1372.13 272.809 1369.81 281.198 1365.17 288.09C1360.52 294.981 1354.61 300.599 1347.42 304.944C1340.22 309.288 1332.21 312.434 1323.37 314.382C1314.53 316.33 1305.92 317.303 1297.53 317.303C1270.26 317.303 1249.36 311.236 1234.83 299.101C1220.3 286.966 1213.03 267.865 1213.03 241.798H1204.04C1204.04 270.862 1211.91 292.135 1227.64 305.618C1243.37 319.101 1266.67 325.843 1297.53 325.843C1307.42 325.843 1317.38 324.719 1327.42 322.472C1337.45 320.225 1346.44 316.554 1354.38 311.461C1362.32 306.367 1368.76 299.775 1373.71 291.685C1378.65 283.595 1381.12 273.708 1381.12 262.022C1381.12 250.936 1378.95 241.948 1374.61 235.056C1370.26 228.165 1364.57 222.472 1357.53 217.978C1350.49 213.483 1342.55 209.963 1333.71 207.416C1324.87 204.869 1315.96 202.397 1306.97 200C1294.38 196.704 1283.37 193.858 1273.93 191.461C1264.49 189.064 1255.73 186.217 1247.64 182.921C1239.85 179.625 1233.63 174.906 1228.99 168.764C1224.34 162.622 1222.02 153.858 1222.02 142.472C1222.02 140.375 1222.62 136.629 1223.82 131.236C1225.02 125.843 1227.87 120.375 1232.36 114.831C1236.85 109.288 1243.75 104.345 1253.03 100C1262.32 95.6554 1275.06 93.4831 1291.24 93.4831C1302.32 93.4831 1312.43 94.6816 1321.57 97.0786C1330.71 99.4757 1338.58 103.296 1345.17 108.539C1351.76 113.783 1356.85 120.449 1360.45 128.539C1364.04 136.629 1365.84 146.517 1365.84 158.202Z" fill="#222222"/>
</g>
<defs>
<clipPath id="clip0_7:231">
<rect width="1381.12" height="400" fill="white"/>
</clipPath>
</defs>
</svg>
