<svg width="400" height="400" viewBox="0 0 400 400" fill="none" xmlns="http://www.w3.org/2000/svg">
<path d="M133.333 400C170.133 400 200 370.133 200 333.333V266.667H133.333C96.5333 266.667 66.6666 296.533 66.6666 333.333C66.6666 370.133 96.5333 400 133.333 400Z" fill="#0ACF83"/>
<path d="M66.6666 200C66.6666 163.2 96.5333 133.333 133.333 133.333H200V266.667H133.333C96.5333 266.667 66.6666 236.8 66.6666 200Z" fill="#A259FF"/>
<path d="M66.6666 66.6667C66.6666 29.8667 96.5333 0 133.333 0H200V133.333H133.333C96.5333 133.333 66.6666 103.467 66.6666 66.6667Z" fill="#F24E1E"/>
<path d="M200 0H266.667C303.467 0 333.333 29.8667 333.333 66.6667C333.333 103.467 303.467 133.333 266.667 133.333H200V0Z" fill="#FF7262"/>
<path d="M333.333 200C333.333 236.8 303.467 266.667 266.667 266.667C229.867 266.667 200 236.8 200 200C200 163.2 229.867 133.333 266.667 133.333C303.467 133.333 333.333 163.2 333.333 200Z" fill="#1ABCFE"/>
</svg>
