<svg width="400" height="400" viewBox="0 0 400 400" fill="none" xmlns="http://www.w3.org/2000/svg">
<g clip-path="url(#clip0_7:384)">
<path d="M392.459 182.181L217.81 7.5446C207.759 -2.51487 191.445 -2.51487 181.381 7.5446L145.116 43.8105L191.121 89.8154C201.812 86.2033 214.07 88.626 222.594 97.1494C231.157 105.725 233.562 118.089 229.862 128.816L274.199 173.153C284.926 169.457 297.302 171.849 305.87 180.43C317.843 192.398 317.843 211.798 305.87 223.775C293.892 235.752 274.493 235.752 262.511 223.775C253.505 214.76 251.28 201.532 255.84 190.436L214.492 149.088L214.487 257.899C217.406 259.347 220.162 261.274 222.594 263.697C234.567 275.665 234.567 295.065 222.594 307.051C210.616 319.024 191.208 319.024 179.248 307.051C167.275 295.065 167.275 275.665 179.248 263.697C182.207 260.743 185.63 258.509 189.282 257.008V147.183C185.63 145.691 182.211 143.47 179.248 140.495C170.176 131.436 167.995 118.124 172.643 106.985L127.296 61.6296L7.54399 181.373C-2.51987 191.442 -2.51987 207.755 7.54399 217.815L182.193 392.455C192.249 402.515 208.558 402.515 218.626 392.455L392.459 218.627C402.519 208.563 402.519 192.24 392.459 182.181Z" fill="#DE4C36"/>
</g>
<defs>
<clipPath id="clip0_7:384">
<rect width="400" height="400" fill="white"/>
</clipPath>
</defs>
</svg>
