<svg width="400" height="400" viewBox="0 0 400 400" fill="none" xmlns="http://www.w3.org/2000/svg">
<path d="M90.9091 350.039V195.493L42.9791 151.644L0 127.311V322.766C0 337.857 12.2273 350.039 27.2727 350.039H90.9091Z" fill="#4285F4"/>
<path d="M309.091 350.039H372.727C387.818 350.039 400 337.811 400 322.766V127.311L351.319 155.184L309.091 195.493V350.039Z" fill="#34A853"/>
<path d="M90.9092 195.493L84.3872 135.107L90.9092 77.3114L200 159.13L309.091 77.3114L316.387 131.986L309.091 195.493L200 277.311L90.9092 195.493Z" fill="#EA4335"/>
<path d="M309.091 77.3114V195.493L400 127.311V90.9478C400 57.2205 361.5 37.9932 334.545 58.2205L309.091 77.3114Z" fill="#FBBC04"/>
<path d="M0 127.311L41.8106 158.669L90.9091 195.493V77.3114L65.4545 58.2205C38.4545 37.9932 0 57.2205 0 90.9478V127.311Z" fill="#C5221F"/>
</svg>
