<svg width="400" height="400" viewBox="0 0 400 400" fill="none" xmlns="http://www.w3.org/2000/svg">
<path fill-rule="evenodd" clip-rule="evenodd" d="M234.176 45.8393L316.425 93.3272C318.741 90.874 321.446 88.708 324.515 86.9254C341.573 77.1195 363.33 82.9418 373.238 100C383.044 117.058 377.222 138.815 360.163 148.723C357.118 150.474 353.919 151.726 350.664 152.506V247.519C353.884 248.3 357.048 249.544 360.061 251.277C377.222 261.185 383.044 282.942 373.136 300C363.33 317.058 341.471 322.88 324.413 313.075C321.017 311.122 318.066 308.692 315.595 305.918L233.848 353.116C235.016 356.647 235.649 360.424 235.649 364.351C235.649 383.963 219.714 400 200 400C180.286 400 164.351 384.065 164.351 364.351C164.351 360.847 164.855 357.462 165.793 354.265L83.5663 306.79C81.275 309.195 78.6073 311.32 75.5873 313.075C58.4269 322.88 36.67 317.058 26.8641 300C17.0582 282.942 22.8805 261.185 39.9387 251.277C42.9547 249.543 46.1177 248.298 49.336 247.517V152.506C46.0805 151.726 42.882 150.474 39.8365 148.723C22.7783 138.917 16.9561 117.058 26.762 100C36.5679 82.9418 58.4269 77.1195 75.4852 86.9254C78.5374 88.6983 81.2299 90.8505 83.5375 93.2872L165.809 45.7865C164.86 42.5741 164.351 39.1717 164.351 35.6486C164.351 15.9346 180.286 0 200 0C219.714 0 235.649 15.9346 235.649 35.6486C235.649 39.191 235.134 42.6114 234.176 45.8393ZM225.606 60.4705L308.051 108.071C305.503 117.022 306.438 126.947 311.44 135.649C316.459 144.379 324.634 150.166 333.708 152.421V247.553C333.245 247.667 332.785 247.789 332.328 247.921L224.649 61.4213C224.974 61.1104 225.293 60.7934 225.606 60.4705ZM175.374 61.4429L67.6964 247.94C67.2309 247.804 66.7627 247.679 66.2921 247.562V152.421C75.3655 150.166 83.5411 144.379 88.5597 135.649C93.5719 126.93 94.501 116.983 91.9337 108.018L174.355 60.4308C174.688 60.7749 175.027 61.1123 175.374 61.4429ZM209.961 69.8917L317.613 256.346C315.204 258.643 313.081 261.32 311.338 264.351C309.606 267.365 308.361 270.528 307.58 273.749H92.4218C91.6409 270.53 90.3957 267.367 88.6619 264.351C86.9124 261.339 84.7934 258.678 82.3962 256.39L190.069 69.9004C193.221 70.8099 196.553 71.2972 200 71.2972C203.458 71.2972 206.8 70.8069 209.961 69.8917ZM226.363 340.335L308.273 293.043C308.027 292.271 307.808 291.491 307.615 290.705H92.3762C92.2621 291.167 92.1387 291.627 92.0063 292.084L174.318 339.608C180.799 332.882 189.904 328.703 200 328.703C210.455 328.703 219.847 333.185 226.363 340.335Z" fill="#E535AB"/>
</svg>
