<svg width="400" height="400" viewBox="0 0 400 400" fill="none" xmlns="http://www.w3.org/2000/svg">
<g clip-path="url(#clip0_7:172)">
<path fill-rule="evenodd" clip-rule="evenodd" d="M27.4854 133.645C-9.16344 170.294 -9.16344 229.706 27.4854 266.352L133.646 372.516C170.295 409.161 229.708 409.161 266.353 372.516L372.517 266.352C409.163 229.703 409.163 170.29 372.517 133.645L266.353 27.4841C229.704 -9.16135 170.292 -9.16135 133.646 27.4841L27.4854 133.645ZM246.445 246.447C272.099 220.793 272.099 179.203 246.445 153.553C220.794 127.899 179.205 127.899 153.554 153.553C127.9 179.207 127.9 220.793 153.554 246.447C179.208 272.098 220.794 272.098 246.449 246.447H246.445Z" fill="#2962FF"/>
</g>
<defs>
<clipPath id="clip0_7:172">
<rect width="400" height="400" fill="white"/>
</clipPath>
</defs>
</svg>
