<svg width="400" height="400" viewBox="0 0 400 400" fill="none" xmlns="http://www.w3.org/2000/svg">
<path d="M344 0C363.681 0 379.677 15.7943 379.995 35.4046L380 36V364C380 383.681 364.201 399.677 344.595 399.995L344 400H56C36.3188 400 20.3228 384.201 20.0048 364.595L20 364V36C20 16.3138 35.7992 0.322677 55.4047 0.00482215L56 0H344ZM344 20H56C47.3178 20 40.2248 26.9574 40.0052 35.5878L40 36V364C40 372.682 46.9574 379.775 55.5878 379.995L56 380H344C352.687 380 359.775 373.043 359.995 364.412L360 364V36C360 27.18 352.825 20 344 20ZM110 260L155 300L110 340V260ZM150 60V173.555C169.97 167.055 197.885 160 225 160C249.725 160 264.525 169.72 272.585 177.875C289.613 195.101 290.018 216.997 289.996 219.917L289.995 220L290 340H250V220.55C249.805 211.215 245.305 200 225 200C184.737 200 139.622 220.048 138.282 220.648L138.255 220.66L110 233.46V60H150ZM290 60C287.3 82.72 278.09 104.5 260 125H220C235.72 104.375 245.59 82.67 250 60H290Z" fill="#430098"/>
</svg>
