<svg width="400" height="400" viewBox="0 0 400 400" fill="none" xmlns="http://www.w3.org/2000/svg">
<path d="M376.35 0L344.218 359.958L199.784 400L55.748 360.015L23.6501 0H376.35Z" fill="#E44D26"/>
<path d="M200 369.394L316.71 337.037L344.168 29.4365H200V369.394Z" fill="#F16529"/>
<path d="M137.537 117.746H200V73.5913H89.2819L90.3388 85.4373L101.191 207.115H200V162.961H141.572L137.537 117.746Z" fill="#EBEBEB"/>
<path d="M147.488 229.192H103.164L109.35 298.521L199.797 323.63L200 323.573V277.634L199.807 277.686L150.632 264.408L147.488 229.192Z" fill="#EBEBEB"/>
<path d="M199.847 207.115H254.218L249.093 264.379L199.847 277.671V323.608L290.366 298.521L291.03 291.061L301.406 174.817L302.483 162.961H199.847V207.115Z" fill="white"/>
<path d="M199.847 117.638V117.746H306.501L307.387 107.821L309.399 85.4373L310.455 73.5913H199.847V117.638Z" fill="white"/>
</svg>
