<svg width="400" height="400" viewBox="0 0 400 400" fill="none" xmlns="http://www.w3.org/2000/svg">
<path d="M0 0H400V400H0V0Z" fill="#F7DF1E"/>
<path d="M105.174 334.269L135.785 315.744C141.691 326.215 147.063 335.074 159.948 335.074C172.3 335.074 180.087 330.242 180.087 311.448V183.639H217.677V311.98C217.677 350.913 194.856 368.634 161.56 368.634C131.489 368.634 114.034 353.06 105.174 334.266" fill="black"/>
<path d="M238.095 330.241L268.702 312.52C276.759 325.678 287.231 335.343 305.757 335.343C321.332 335.343 331.264 327.556 331.264 316.816C331.264 303.928 321.062 299.363 303.877 291.847L294.482 287.816C267.361 276.273 249.371 261.774 249.371 231.164C249.371 202.971 270.851 181.49 304.415 181.49C328.312 181.49 345.497 189.814 357.846 211.563L328.579 230.357C322.135 218.813 315.156 214.249 304.416 214.249C293.407 214.249 286.425 221.23 286.425 230.357C286.425 241.635 293.407 246.201 309.516 253.182L318.912 257.21C350.865 270.904 368.855 284.865 368.855 316.279C368.855 350.112 342.274 368.637 306.563 368.637C271.658 368.637 249.103 351.991 238.096 330.241" fill="black"/>
</svg>
