<svg width="400" height="400" viewBox="0 0 400 400" fill="none" xmlns="http://www.w3.org/2000/svg">
<g clip-path="url(#clip0_7:182)">
<path d="M199.661 297.749C288.156 418.387 374.76 264.078 374.633 171.282C374.483 61.5669 263.281 0.247803 199.589 0.247803C97.3578 0.247803 -0.00012207 84.738 -0.00012207 200.338C-0.00012207 328.828 111.601 400 199.589 400C179.678 397.133 113.323 382.915 112.432 230.083C111.832 126.717 146.151 85.4193 199.445 103.585C200.638 104.028 258.23 126.747 258.23 200.962C258.23 274.862 199.661 297.749 199.661 297.749Z" fill="url(#paint0_linear_7:182)"/>
<path d="M199.558 103.502C141.083 83.3473 69.4507 131.542 69.4507 228.074C69.4507 385.694 186.252 400 200.411 400C302.642 400 400 315.51 400 199.91C400 71.4203 288.399 0.247825 200.411 0.247825C224.781 -3.12718 331.763 26.6226 331.763 172.84C331.763 268.193 251.881 320.102 199.925 297.923C198.731 297.481 141.14 274.762 141.14 200.547C141.14 126.647 199.558 103.502 199.558 103.502Z" fill="url(#paint1_linear_7:182)"/>
</g>
<defs>
<linearGradient id="paint0_linear_7:182" x1="59.1594" y1="59.1595" x2="357.956" y2="321.585" gradientUnits="userSpaceOnUse">
<stop/>
<stop offset="1" stop-color="white"/>
</linearGradient>
<linearGradient id="paint1_linear_7:182" x1="340.95" y1="340.95" x2="17.5454" y2="120.099" gradientUnits="userSpaceOnUse">
<stop/>
<stop offset="1" stop-color="white"/>
</linearGradient>
<clipPath id="clip0_7:182">
<rect width="400" height="400" fill="white"/>
</clipPath>
</defs>
</svg>
