<svg width="400" height="400" viewBox="0 0 400 400" fill="none" xmlns="http://www.w3.org/2000/svg">
<rect width="400" height="400" rx="30" fill="white"/>
<path d="M340.819 340.825H281.551V248.008C281.551 225.875 281.156 197.383 250.726 197.383C219.858 197.383 215.135 221.498 215.135 246.397V340.819H155.867V149.949H212.764V176.033H213.561C225.162 156.197 246.734 144.349 269.698 145.201C329.768 145.201 340.844 184.714 340.844 236.117L340.819 340.825ZM88.9938 123.858C69.9987 123.862 54.5974 108.466 54.594 89.4701C54.5906 70.4746 69.9864 55.073 88.9815 55.0695C107.977 55.0661 123.378 70.4623 123.381 89.4578C123.383 98.5797 119.761 107.329 113.312 113.78C106.863 120.231 98.1156 123.857 88.9938 123.858ZM118.628 340.825H59.2984V149.949H118.628V340.825ZM370.366 0.0298262H29.5164C13.4072 -0.151971 0.196605 12.7522 0 28.8616V371.133C0.189874 387.25 13.3994 400.167 29.5164 399.998H370.366C386.515 400.198 399.776 387.282 400 371.133V28.8369C399.77 12.6957 386.507 -0.207753 370.366 0.00253418" fill="#0A66C2"/>
</svg>
