<svg width="400" height="400" viewBox="0 0 400 400" fill="none" xmlns="http://www.w3.org/2000/svg">
<path fill-rule="evenodd" clip-rule="evenodd" d="M209.105 400L198.456 396.362C198.456 396.362 199.756 342.077 180.276 338.181C167.289 323.116 182.354 -300.778 229.106 336.103C229.106 336.103 213.003 344.155 210.145 357.921C207.027 371.428 209.105 400 209.105 400Z" fill="white"/>
<path fill-rule="evenodd" clip-rule="evenodd" d="M209.105 400L198.456 396.362C198.456 396.362 199.756 342.077 180.276 338.181C167.289 323.116 182.354 -300.778 229.106 336.103C229.106 336.103 213.003 344.155 210.145 357.921C207.027 371.428 209.105 400 209.105 400Z" fill="#A6A385"/>
<path fill-rule="evenodd" clip-rule="evenodd" d="M214.821 347.533C214.821 347.533 308.067 286.234 286.248 158.7C265.21 65.9745 215.598 35.5852 210.145 23.896C204.172 15.5848 198.456 1.04019 198.456 1.04019L202.354 258.96C202.354 259.22 194.3 337.921 214.821 347.533Z" fill="white"/>
<path fill-rule="evenodd" clip-rule="evenodd" d="M214.821 347.533C214.821 347.533 308.067 286.234 286.248 158.7C265.21 65.9745 215.598 35.5852 210.145 23.896C204.172 15.5848 198.456 1.04019 198.456 1.04019L202.354 258.96C202.354 259.22 194.3 337.921 214.821 347.533Z" fill="#499D4A"/>
<path fill-rule="evenodd" clip-rule="evenodd" d="M193.003 350.908C193.003 350.908 105.47 291.167 110.666 185.974C115.599 80.7791 177.418 29.0917 189.365 19.7403C197.158 11.4291 197.418 8.31121 197.938 0C203.392 11.6892 202.354 174.805 203.132 194.025C205.47 268.051 198.976 336.883 193.003 350.908Z" fill="white"/>
<path fill-rule="evenodd" clip-rule="evenodd" d="M193.003 350.908C193.003 350.908 105.47 291.167 110.666 185.974C115.599 80.7791 177.418 29.0917 189.365 19.7403C197.158 11.4291 197.418 8.31121 197.938 0C203.392 11.6892 202.354 174.805 203.132 194.025C205.47 268.051 198.976 336.883 193.003 350.908Z" fill="#58AA50"/>
</svg>
