<svg width="400" height="400" viewBox="0 0 400 400" fill="none" xmlns="http://www.w3.org/2000/svg">
<path d="M289.893 138.81L289.747 138.748C289.663 138.717 289.58 138.685 289.507 138.612C289.264 138.352 289.156 137.993 289.214 137.642L297.287 88.3399L335.145 126.167L295.773 142.9C295.664 142.944 295.546 142.965 295.428 142.962H295.272C295.219 142.931 295.167 142.889 295.063 142.785C293.598 141.155 291.845 139.808 289.893 138.81ZM344.806 135.806L385.285 176.241C393.692 184.649 397.901 188.843 399.436 193.704C399.666 194.424 399.854 195.144 400 195.885L303.261 154.959C303.209 154.938 303.157 154.917 303.104 154.897C302.718 154.74 302.269 154.563 302.269 154.167C302.269 153.77 302.728 153.582 303.115 153.426L303.24 153.374L344.806 135.806ZM398.35 208.862C396.261 212.785 392.188 216.853 385.295 223.749L339.657 269.327L280.63 257.048L280.316 256.985C279.794 256.902 279.241 256.808 279.241 256.339C278.788 251.422 276.31 246.914 272.4 243.893C272.16 243.653 272.223 243.278 272.296 242.933C272.296 242.881 272.296 242.829 272.317 242.787L283.418 174.707L283.46 174.478C283.523 173.956 283.617 173.351 284.087 173.351C288.892 172.754 293.257 170.255 296.201 166.414C296.295 166.309 296.358 166.195 296.483 166.132C296.817 165.976 297.214 166.132 297.559 166.278L398.339 208.862H398.35ZM329.161 279.811L254.113 354.776L266.959 275.909L266.98 275.805C266.99 275.701 267.011 275.596 267.043 275.502C267.147 275.252 267.419 275.148 267.68 275.043L267.805 274.991C270.618 273.793 273.105 271.944 275.063 269.598C275.314 269.306 275.617 269.024 276.003 268.972C276.104 268.956 276.206 268.956 276.306 268.972L329.151 279.821L329.161 279.811ZM238.229 370.643L229.769 379.093L136.247 244.081C136.213 244.032 136.178 243.983 136.143 243.935C135.996 243.737 135.84 243.538 135.871 243.309C135.882 243.142 135.986 242.996 136.101 242.871L136.205 242.735C136.487 242.318 136.728 241.901 136.989 241.452L137.197 241.087L137.229 241.056C137.375 240.805 137.511 240.565 137.761 240.43C137.981 240.325 138.284 240.367 138.524 240.419L242.135 261.763C242.424 261.808 242.698 261.927 242.928 262.108C243.064 262.243 243.095 262.389 243.127 262.556C244.592 268.093 248.564 272.628 253.863 274.814C254.155 274.96 254.03 275.283 253.894 275.628C253.826 275.778 253.774 275.936 253.737 276.097C252.432 284.025 241.237 352.231 238.229 370.643ZM220.558 388.284C214.323 394.449 210.647 397.715 206.491 399.029C202.392 400.324 197.994 400.324 193.896 399.029C189.029 397.485 184.82 393.291 176.413 384.883L82.4939 291.067L107.026 253.063C107.141 252.875 107.256 252.708 107.444 252.573C107.705 252.385 108.081 252.468 108.394 252.573C114.025 254.27 120.07 253.964 125.501 251.707C125.783 251.602 126.065 251.529 126.284 251.728C126.394 251.828 126.492 251.94 126.576 252.061L220.558 388.294V388.284ZM73.4393 282.023L51.8942 260.501L94.4414 242.37C94.5502 242.323 94.6674 242.298 94.786 242.297C95.1411 242.297 95.35 242.652 95.538 242.975C95.9656 243.632 96.4185 244.273 96.8956 244.895L97.0314 245.062C97.1567 245.239 97.0732 245.416 96.9479 245.583L73.4498 282.023H73.4393ZM42.3592 250.977L15.1014 223.749C10.4645 219.117 7.10164 215.758 4.76228 212.868L87.6426 230.039C87.7467 230.059 87.8512 230.076 87.9559 230.091C88.4677 230.175 89.0316 230.269 89.0316 230.749C89.0316 231.27 88.4154 231.51 87.8933 231.708L87.6531 231.813L42.3592 250.977ZM0 198.868C0.0944535 197.114 0.410259 195.379 0.939923 193.704C2.48557 188.843 6.6839 184.649 15.1014 176.241L49.983 141.398C66.0435 164.681 82.1476 187.934 98.2951 211.157C98.5771 211.533 98.8904 211.95 98.5666 212.263C97.0419 213.943 95.5171 215.779 94.4414 217.771C94.3247 218.027 94.1451 218.25 93.9192 218.418C93.7835 218.501 93.6372 218.47 93.4806 218.439H93.4597L0 198.858V198.868ZM59.3196 132.071L106.222 85.2207C110.629 87.1506 126.67 93.921 141.02 99.9717C151.881 104.562 161.782 108.735 164.894 110.091C165.207 110.216 165.489 110.341 165.625 110.654C165.708 110.842 165.667 111.082 165.625 111.28C164.117 118.15 166.169 125.317 171.087 130.35C171.4 130.663 171.087 131.112 170.815 131.498L170.669 131.717L123.046 205.399C122.921 205.607 122.806 205.785 122.597 205.92C122.347 206.077 121.992 206.004 121.699 205.931C119.847 205.446 117.943 205.187 116.028 205.159C114.316 205.159 112.457 205.472 110.577 205.816H110.566C110.357 205.847 110.169 205.889 110.002 205.764C109.818 205.613 109.659 205.433 109.532 205.232L59.3196 132.071ZM115.694 75.7587L176.413 15.1064C184.82 6.70856 189.029 2.50441 193.896 0.970892C197.994 -0.323631 202.392 -0.323631 206.491 0.970892C211.357 2.50441 215.566 6.70856 223.973 15.1064L237.132 28.2509L193.948 95.0581C193.841 95.2526 193.695 95.4231 193.52 95.5589C193.259 95.7362 192.893 95.6632 192.58 95.5589C185.668 93.4636 178.166 94.9076 172.528 99.4188C172.246 99.7109 171.828 99.5439 171.473 99.3875C165.834 96.9359 121.971 78.4189 115.694 75.7587ZM246.302 37.4103L286.175 77.2401L276.567 136.682V136.839C276.559 136.974 276.53 137.108 276.484 137.235C276.379 137.444 276.17 137.486 275.961 137.548C273.907 138.17 271.972 139.132 270.238 140.396C270.164 140.449 270.094 140.509 270.029 140.573C269.915 140.699 269.8 140.813 269.612 140.834C269.459 140.839 269.306 140.814 269.163 140.761L208.402 114.973L208.287 114.921C207.901 114.764 207.441 114.577 207.441 114.18C207.084 110.798 205.978 107.537 204.204 104.635C203.911 104.155 203.587 103.654 203.838 103.164L246.302 37.4103ZM205.237 127.189L262.197 151.287C262.51 151.433 262.855 151.569 262.991 151.892C263.045 152.087 263.045 152.292 262.991 152.487C262.823 153.322 262.677 154.271 262.677 155.231V156.827C262.677 157.223 262.27 157.39 261.894 157.547L261.779 157.588C252.756 161.438 135.098 211.554 134.921 211.554C134.743 211.554 134.555 211.554 134.378 211.376C134.064 211.063 134.378 210.625 134.66 210.229C134.71 210.16 134.758 210.09 134.806 210.02L181.614 137.621L181.698 137.496C181.969 137.058 182.282 136.568 182.784 136.568L183.254 136.641C184.319 136.787 185.259 136.922 186.209 136.922C193.311 136.922 199.89 133.469 203.859 127.565C203.953 127.407 204.073 127.266 204.214 127.147C204.496 126.939 204.914 127.043 205.237 127.189ZM140.007 223.008L268.254 168.375C268.254 168.375 268.442 168.375 268.62 168.552C269.319 169.251 269.915 169.721 270.489 170.159L270.771 170.336C271.032 170.482 271.293 170.649 271.314 170.92C271.314 171.025 271.314 171.087 271.293 171.181L260.307 238.594L260.265 238.865C260.192 239.386 260.119 239.981 259.628 239.981C253.681 240.382 248.316 243.688 245.289 248.817L245.236 248.901C245.09 249.14 244.954 249.37 244.714 249.495C244.495 249.599 244.213 249.558 243.983 249.506L141.709 228.433C141.605 228.412 140.122 223.018 140.007 223.008Z" fill="url(#paint0_radial_8:436)"/>
<defs>
<radialGradient id="paint0_radial_8:436" cx="0" cy="0" r="1" gradientUnits="userSpaceOnUse" gradientTransform="translate(200 -200) scale(400)">
<stop stop-color="#20C6B7"/>
<stop offset="1" stop-color="#4D9ABF"/>
</radialGradient>
</defs>
</svg>
