<svg width="400" height="400" viewBox="0 0 400 400" fill="none" xmlns="http://www.w3.org/2000/svg">
<path d="M186.901 0.107641C186.041 0.185831 183.304 0.459496 180.841 0.654971C124.027 5.77641 70.8113 36.4268 37.1065 83.5362C18.3382 109.73 6.33431 139.442 1.79863 170.913C0.195503 181.899 0 185.144 0 200.039C0 214.934 0.195503 218.179 1.79863 229.165C12.6686 304.266 66.1193 367.366 138.612 390.744C151.593 394.927 165.279 397.781 180.841 399.502C186.901 400.166 213.099 400.166 219.159 399.502C246.022 396.53 268.778 389.884 291.222 378.429C294.663 376.67 295.327 376.201 294.858 375.81C294.545 375.575 279.883 355.911 262.287 332.141L230.303 288.941L190.225 229.634C168.172 197.029 150.029 170.366 149.873 170.366C149.717 170.327 149.56 196.677 149.482 228.852C149.365 285.188 149.326 287.455 148.622 288.785C147.605 290.7 146.823 291.482 145.181 292.342C143.93 292.968 142.835 293.085 136.931 293.085H130.166L128.368 291.951C127.195 291.209 126.334 290.231 125.748 289.097L124.927 287.338L125.005 208.953L125.122 130.528L126.334 129.004C126.96 128.183 128.289 127.127 129.228 126.619C130.831 125.837 131.456 125.759 138.221 125.759C146.197 125.759 147.527 126.072 149.599 128.339C150.186 128.965 171.887 161.648 197.849 201.017C223.812 240.385 259.316 294.141 276.755 320.53L308.426 368.499L310.029 367.444C324.223 358.217 339.238 345.081 351.124 331.398C376.422 302.351 392.727 266.931 398.201 229.165C399.804 218.179 400 214.934 400 200.039C400 185.144 399.804 181.899 398.201 170.913C387.331 95.8121 333.881 32.7128 261.388 9.33405C248.602 5.18998 234.995 2.33605 219.746 0.615876C215.992 0.224926 190.147 -0.205118 186.901 0.107641ZM268.778 121.067C270.655 122.006 272.18 123.804 272.727 125.681C273.04 126.697 273.118 148.434 273.04 197.42L272.923 267.712L260.528 248.712L248.094 229.712V178.615C248.094 145.58 248.25 127.01 248.485 126.111C249.11 123.921 250.479 122.201 252.356 121.185C253.959 120.364 254.545 120.285 260.684 120.285C266.471 120.285 267.488 120.364 268.778 121.067Z" fill="black"/>
</svg>
