<svg width="400" height="400" viewBox="0 0 400 400" fill="none" xmlns="http://www.w3.org/2000/svg">
<path d="M200 400C194.488 400 189.343 398.53 184.566 395.958L135.691 366.927C128.342 362.885 132.017 361.415 134.221 360.68C144.143 357.373 145.981 356.638 156.27 350.758C157.373 350.023 158.842 350.39 159.945 351.125L197.428 373.542C198.898 374.277 200.735 374.277 201.837 373.542L348.461 288.654C349.931 287.919 350.666 286.449 350.666 284.612V115.204C350.666 113.367 349.931 111.897 348.461 111.162L201.837 26.6422C200.367 25.9072 198.53 25.9072 197.428 26.6422L50.8039 111.162C49.334 111.897 48.599 113.734 48.599 115.204V284.612C48.599 286.082 49.334 287.919 50.8039 288.654L90.859 311.805C112.54 322.83 126.137 309.968 126.137 297.106V129.904C126.137 127.699 127.974 125.494 130.547 125.494H149.288C151.493 125.494 153.698 127.331 153.698 129.904V297.106C153.698 326.137 137.896 343.041 110.335 343.041C101.883 343.041 95.2687 343.041 76.5273 333.854L37.9421 311.805C28.3877 306.293 22.5081 296.004 22.5081 284.979V115.572C22.5081 104.548 28.3877 94.2582 37.9421 88.746L184.566 3.85852C193.753 -1.28617 206.247 -1.28617 215.434 3.85852L362.058 88.746C371.612 94.2582 377.492 104.548 377.492 115.572V284.979C377.492 296.004 371.612 306.293 362.058 311.805L215.434 396.693C210.657 398.898 205.145 400 200 400ZM245.2 283.509C180.891 283.509 167.662 254.111 167.662 229.123C167.662 226.918 169.499 224.713 172.072 224.713H191.181C193.385 224.713 195.223 226.183 195.223 228.388C198.163 247.864 206.615 257.418 245.567 257.418C276.435 257.418 289.665 250.436 289.665 233.9C289.665 224.345 285.99 217.363 237.85 212.586C197.795 208.544 172.807 199.724 172.807 167.754C172.807 137.988 197.795 120.349 239.688 120.349C286.725 120.349 309.876 136.518 312.816 171.796C312.816 172.898 312.448 174.001 311.713 175.103C310.978 175.838 309.876 176.573 308.774 176.573H289.665C287.827 176.573 285.99 175.103 285.622 173.266C281.213 153.055 269.821 146.44 239.688 146.44C205.88 146.44 201.837 158.199 201.837 167.019C201.837 177.676 206.615 180.983 252.182 186.863C297.382 192.742 318.695 201.194 318.695 232.797C318.328 265.136 291.87 283.509 245.2 283.509Z" fill="#539E43"/>
</svg>
