<svg width="400" height="400" viewBox="0 0 400 400" fill="none" xmlns="http://www.w3.org/2000/svg">
<g clip-path="url(#clip0_7:133)">
<path d="M398.364 225.395C412.362 115.815 334.976 15.6332 225.595 1.63575C116.215 -12.3617 15.6332 65.0243 1.63575 174.405C-12.3617 283.785 65.0243 384.167 174.405 398.364C283.985 412.362 384.167 334.976 398.364 225.395Z" fill="#FF6C37"/>
<path d="M272.187 128.413L187.802 212.798L164.006 189.002C246.992 106.017 255.19 113.216 272.187 128.413Z" fill="white"/>
<path d="M187.802 214.797C187.202 214.797 186.802 214.597 186.402 214.197L162.407 190.402C161.607 189.602 161.607 188.402 162.407 187.602C246.792 103.217 255.59 111.216 273.387 127.213C273.787 127.613 273.987 128.013 273.987 128.613C273.987 129.213 273.787 129.613 273.387 130.013L189.002 214.197C188.802 214.597 188.202 214.797 187.802 214.797ZM166.806 189.002L187.802 209.998L269.188 128.613C254.39 115.415 244.392 111.416 166.806 189.002Z" fill="#FF6C37"/>
<path d="M211.998 236.993L189.002 213.998L273.387 129.613C295.983 152.409 262.189 189.402 211.998 236.993Z" fill="white"/>
<path d="M211.998 238.993C211.398 238.993 210.998 238.793 210.598 238.393L187.602 215.397C187.202 214.997 187.202 214.597 187.202 213.998C187.202 213.398 187.402 212.998 187.802 212.598L272.187 128.213C272.987 127.413 274.187 127.413 274.987 128.213C280.186 133.012 282.985 139.811 282.785 146.81C282.385 169.006 257.19 197.201 213.598 238.393C212.998 238.793 212.398 238.993 211.998 238.993ZM191.802 213.998C204.599 226.995 209.998 232.194 211.998 234.194C245.592 202.2 278.186 169.406 278.386 146.81C278.586 141.611 276.586 136.412 273.187 132.412L191.802 213.998Z" fill="#FF6C37"/>
<path d="M164.406 189.602L181.403 206.599C181.803 206.999 181.803 207.399 181.403 207.799C181.203 207.999 181.203 207.999 181.003 207.999L145.81 215.597C144.01 215.797 142.41 214.597 142.01 212.798C141.81 211.798 142.21 210.798 142.81 210.198L163.207 189.802C163.607 189.402 164.206 189.202 164.406 189.602Z" fill="white"/>
<path d="M145.21 217.597C142.21 217.597 140.011 215.197 140.011 212.198C140.011 210.798 140.611 209.398 141.611 208.399L162.007 188.002C163.207 187.002 164.806 187.002 166.006 188.002L183.003 204.999C184.203 205.999 184.203 207.799 183.003 208.998C182.603 209.398 182.203 209.598 181.603 209.798L146.41 217.397C146.01 217.397 145.61 217.597 145.21 217.597ZM163.807 191.802L144.21 211.398C143.81 211.798 143.61 212.398 144.01 212.998C144.21 213.598 144.81 213.798 145.41 213.598L178.404 206.399L163.807 191.802Z" fill="#FF6C37"/>
<path d="M316.779 81.6214C303.981 69.2236 283.385 69.6235 270.987 82.6212C258.59 95.6188 258.989 116.015 271.987 128.413C282.585 138.611 298.582 140.411 311.18 132.812L288.384 110.016L316.779 81.6214Z" fill="white"/>
<path d="M294.383 139.411C275.386 139.411 259.989 124.014 259.989 105.017C259.989 86.0206 275.386 70.6234 294.383 70.6234C303.181 70.6234 311.78 74.0227 318.179 80.2216C318.579 80.6216 318.779 81.0215 318.779 81.6214C318.779 82.2213 318.579 82.6212 318.179 83.0211L291.184 110.016L312.38 131.212C313.18 132.012 313.18 133.212 312.38 134.012C312.18 134.212 312.18 134.212 311.98 134.412C306.781 137.611 300.582 139.411 294.383 139.411ZM294.383 74.8226C277.586 74.8226 263.989 88.4201 264.189 105.217C264.189 122.014 277.786 135.612 294.583 135.412C299.182 135.412 303.781 134.412 307.981 132.212L286.984 111.416C286.584 111.016 286.385 110.616 286.385 110.016C286.385 109.416 286.584 109.016 286.984 108.617L313.78 81.8213C308.381 77.2222 301.582 74.8226 294.383 74.8226Z" fill="#FF6C37"/>
<path d="M317.379 82.2212L316.979 81.8213L288.384 110.016L310.98 132.612C313.18 131.212 315.379 129.613 317.179 127.813C329.977 115.215 329.977 94.819 317.379 82.2212Z" fill="white"/>
<path d="M311.18 134.812C310.58 134.812 310.18 134.612 309.78 134.212L286.984 111.416C286.584 111.016 286.385 110.616 286.385 110.016C286.385 109.416 286.584 109.016 286.984 108.616L315.379 80.2216C316.179 79.4217 317.379 79.4217 318.179 80.2216L318.779 80.6215C332.176 94.0191 332.176 115.615 318.979 129.213C316.979 131.212 314.779 133.012 312.38 134.412C311.78 134.612 311.38 134.812 311.18 134.812ZM291.184 110.016L311.38 130.213C312.98 129.213 314.579 127.813 315.779 126.613C327.177 115.215 327.777 96.6186 316.779 84.6208L291.184 110.016Z" fill="#FF6C37"/>
<path d="M275.586 132.012C270.787 127.213 262.989 127.213 258.19 132.012L182.803 207.399L195.401 219.996L275.186 150.009C280.386 145.61 280.785 137.811 276.386 132.612C275.986 132.412 275.786 132.212 275.586 132.012Z" fill="white"/>
<path d="M195.201 221.996C194.601 221.996 194.201 221.796 193.801 221.396L181.203 208.798C180.404 207.999 180.404 206.799 181.203 205.999L256.59 130.613C262.189 125.014 271.187 125.014 276.786 130.613C282.385 136.212 282.385 145.21 276.786 150.809C276.586 151.009 276.386 151.209 276.186 151.409L196.401 221.396C196.201 221.796 195.801 221.996 195.201 221.996ZM185.603 207.399L195.401 217.197L273.787 148.409C278.186 144.81 278.586 138.211 274.987 133.812C271.387 129.413 264.788 129.013 260.389 132.612C260.189 132.812 259.989 133.012 259.589 133.212L185.603 207.399Z" fill="#FF6C37"/>
<path d="M125.014 293.183C124.214 293.583 123.814 294.383 124.014 295.183L127.413 309.58C128.213 311.58 127.013 313.98 124.814 314.579C123.214 315.179 121.414 314.579 120.414 313.38L98.4183 291.584L170.205 219.796L195.001 220.196L211.798 236.993C207.799 240.393 183.603 263.789 125.014 293.183Z" fill="white"/>
<path d="M123.414 316.579C121.814 316.579 120.214 315.979 119.215 314.779L97.4184 292.983C97.0185 292.583 96.8185 292.183 96.8185 291.584C96.8185 290.984 97.0185 290.584 97.4184 290.184L169.206 218.397C169.605 217.997 170.205 217.797 170.605 217.797L195.401 218.197C196.001 218.197 196.401 218.397 196.801 218.797L213.598 235.594C213.997 235.994 214.197 236.593 214.197 237.193C214.197 237.793 213.997 238.193 213.398 238.593L211.998 239.793C190.802 258.39 162.007 276.986 126.213 294.783L129.613 308.98C130.213 311.58 129.013 314.379 126.613 315.779C125.413 316.379 124.414 316.579 123.414 316.579ZM101.418 291.584L122.014 311.98C122.614 312.98 123.814 313.38 124.814 312.78C125.813 312.18 126.213 310.98 125.613 309.98L122.214 295.583C121.814 293.783 122.614 292.183 124.214 291.384C159.607 273.587 188.202 255.19 209.198 236.993L194.401 222.196L171.405 221.796L101.418 291.584Z" fill="#FF6C37"/>
<path d="M81.4214 308.78L98.6183 291.584L124.214 317.179L83.421 314.379C81.6213 314.179 80.4216 312.58 80.6215 310.78C80.6215 309.98 80.8215 309.18 81.4214 308.78Z" fill="white"/>
<path d="M124.214 318.979L83.221 316.179C80.2216 315.979 78.2219 313.38 78.4219 310.38C78.6219 309.18 79.0218 307.981 80.0216 307.181L97.2185 289.984C98.0184 289.184 99.2181 289.184 100.018 289.984L125.613 315.579C126.213 316.179 126.413 316.979 126.013 317.779C125.613 318.579 125.014 318.979 124.214 318.979ZM98.6183 294.383L82.8211 310.18C82.2212 310.58 82.2212 311.58 82.8211 311.98C83.0211 312.18 83.221 312.38 83.621 312.38L119.015 314.779L98.6183 294.383Z" fill="#FF6C37"/>
<path d="M163.207 228.995C162.007 228.995 161.207 227.995 161.207 226.995C161.207 226.395 161.407 225.995 161.807 225.595L181.203 206.199C182.003 205.399 183.203 205.399 184.003 206.199L196.601 218.797C197.201 219.397 197.401 219.996 197.201 220.796C197.001 221.396 196.401 221.996 195.601 222.196L163.607 228.995C163.407 228.995 163.207 228.995 163.207 228.995ZM182.603 210.398L169.406 223.596L191.002 218.997L182.603 210.398Z" fill="#FF6C37"/>
<path d="M195.001 220.196L173.005 224.996C171.405 225.395 169.805 224.396 169.405 222.796C169.206 221.796 169.405 220.796 170.205 219.996L182.403 207.799L195.001 220.196Z" fill="white"/>
<path d="M172.605 226.995C169.805 226.995 167.606 224.796 167.606 221.996C167.606 220.596 168.206 219.397 169.006 218.397L181.203 206.199C182.003 205.399 183.203 205.399 184.003 206.199L196.601 218.797C197.201 219.397 197.4 219.996 197.201 220.796C197.001 221.396 196.401 221.996 195.601 222.196L173.605 226.995C173.205 226.995 172.805 226.995 172.605 226.995ZM182.603 210.398L171.805 221.196C171.405 221.596 171.405 221.996 171.605 222.396C171.805 222.796 172.205 222.996 172.805 222.996L191.202 218.997L182.603 210.398Z" fill="#FF6C37"/>
<path d="M317.579 101.418C317.179 100.218 315.779 99.6181 314.579 100.018C313.38 100.418 312.78 101.818 313.18 103.018C313.18 103.217 313.38 103.417 313.38 103.617C314.579 106.017 314.179 109.016 312.58 111.216C311.78 112.216 311.98 113.616 312.78 114.415C313.78 115.215 315.179 115.015 315.979 114.016C318.979 110.216 319.578 105.417 317.579 101.418Z" fill="#FF6C37"/>
</g>
<defs>
<clipPath id="clip0_7:133">
<rect width="400" height="400" fill="white"/>
</clipPath>
</defs>
</svg>
