<svg width="400" height="400" viewBox="0 0 400 400" fill="none" xmlns="http://www.w3.org/2000/svg">
<g clip-path="url(#clip0_7:137)">
<path d="M400.211 189.559C400.076 184.419 399.805 179.144 399.534 174.003C399.264 168.726 399.129 163.451 398.587 158.176C397.64 151.005 396.693 143.701 395.07 136.666C393.852 130.85 391.823 125.303 389.795 119.757C387.224 113.263 384.654 106.635 381.408 100.413C376.131 90.4025 369.232 81.4738 362.874 72.1396C358.68 66.1866 353.271 61.3168 349.212 55.2307C346.912 51.7134 343.529 48.7361 340.148 46.0312C334.737 41.703 329.055 37.7786 323.374 33.9921C319.044 31.0148 314.716 28.1752 310.117 25.6049C306.463 23.5747 302.541 21.9514 298.753 20.1935C294.424 18.1633 290.231 15.7292 285.361 14.7821C284.143 14.5113 283.062 14.1059 281.844 13.7005C278.732 12.6172 275.756 11.401 272.644 10.4539C267.911 8.96528 263.312 7.20583 258.44 5.98956C253.707 4.77172 248.837 3.9593 243.967 3.28307C238.556 2.47222 233.01 2.20142 227.598 1.65981C224.081 1.25438 220.563 0.848956 217.181 0.712771C212.042 0.443531 206.765 0.443531 201.624 0.307346C199.054 0.172726 196.349 -0.0980792 193.779 0.0365408C189.856 0.172726 185.933 0.578151 182.009 1.11976C178.222 1.52519 174.434 2.20142 170.781 2.74303C166.318 3.28307 161.854 3.55388 157.389 4.09549C153.196 4.6371 148.867 5.44795 144.674 6.12418C143.185 6.39498 141.697 6.93659 140.209 7.20583C136.963 7.88363 133.58 8.15443 130.334 9.23609C124.517 10.994 118.7 13.0242 113.018 15.1875C107.743 17.3524 102.602 19.6519 97.5976 22.3584C92.457 25.1979 87.5872 28.5807 82.7158 31.8272C78.1168 34.9375 73.5178 38.1856 69.0534 41.703C64.7253 45.0841 60.6663 48.8723 56.7436 52.6604C54.5787 54.8237 52.8208 57.394 50.7905 59.8297C47.4094 63.7525 44.0267 67.5406 40.7801 71.598C38.0752 74.9807 35.6395 78.498 33.0708 82.0154C28.4702 88.2376 24.5475 94.8653 20.8955 101.495C19.4069 104.199 18.0544 106.906 16.702 109.611C14.6717 113.67 12.5084 117.593 10.6143 121.786C9.26186 124.627 8.17864 127.738 7.36779 130.85C5.47372 137.477 3.57965 144.241 1.82176 150.87C0.198497 156.822 -0.208493 163.046 -0.343113 169.133C-0.479298 174.543 0.0623123 179.82 0.603923 185.231C0.738543 186.584 -0.0723077 188.207 1.55096 189.289C1.68558 189.289 1.55096 189.83 1.41477 189.965C1.00935 190.777 1.41477 191.588 2.22719 191.859C2.22719 191.859 2.36181 191.995 2.36181 192.13H1.68558C1.28015 193.348 2.63261 194.295 2.091 195.647C1.95638 195.918 2.49799 196.458 2.76723 196.865C2.76723 197.27 2.63261 197.812 2.76723 198.217C2.90342 199.435 3.44503 200.652 3.44503 202.006C3.44503 202.953 4.25588 204.034 4.52668 204.981C4.6613 205.387 4.52668 206.063 4.25588 206.334C3.44503 207.281 3.57965 208.093 4.79749 208.633C5.06829 208.769 5.47372 209.309 5.47372 209.58C5.47372 210.393 5.20291 211.204 5.06829 212.016C5.33753 212.287 5.47372 212.556 5.33753 212.827C5.33753 213.232 4.93211 213.639 5.06829 213.91C6.14995 216.073 6.55537 218.509 6.69156 220.943C6.69156 221.485 6.96237 222.026 7.23161 222.703C7.36779 222.703 7.77322 222.703 8.04402 222.837L7.23161 225.273C7.90784 224.866 8.44945 224.731 9.12568 224.46C9.5311 226.22 9.93809 227.843 10.4781 229.33C10.6143 229.601 10.8851 229.872 11.2906 230.143C11.1544 230.413 11.1544 230.954 10.8851 231.09C11.4252 233.524 11.696 235.825 12.643 238.124C12.7792 238.124 12.9138 237.988 13.0484 237.988C12.643 235.554 12.3722 232.984 11.9668 230.548V229.737C11.9668 229.737 12.2376 229.601 12.3722 229.601C12.5084 230.143 12.7792 230.819 12.7792 231.224C13.8609 231.224 15.4841 231.901 16.5658 231.901C16.702 231.495 16.8366 230.954 16.9728 230.684C16.1603 229.872 15.4841 228.654 14.6717 227.843C14.9425 228.925 14.6717 229.33 14.6717 229.737C14.1317 229.466 13.4554 229.196 12.7792 228.925C13.3192 228.249 13.8609 227.572 14.6717 226.76C14.6717 225.544 13.9955 224.46 12.1014 224.597C12.9138 224.326 13.7262 223.92 14.6717 223.65C14.8079 224.055 14.9425 224.46 15.0787 224.731C16.1603 222.837 14.5371 221.35 14.5371 219.456C14.6717 217.157 13.3192 214.857 12.9138 212.421C12.2376 208.633 12.3722 202.953 11.9668 199.164C11.9668 198.894 11.5614 198.623 11.2906 198.352C11.1544 198.488 10.4781 200.246 10.3435 200.382C10.7489 203.629 11.1544 206.875 11.4252 210.122C11.2906 210.122 11.1544 210.122 11.1544 210.256C10.6143 207.415 10.0727 204.44 9.39648 201.193C9.26186 202.14 9.12568 202.546 9.12568 203.087C8.72025 202.953 8.58563 202.816 7.90784 202.546C8.44945 203.763 8.99106 204.576 9.39648 205.523C8.44945 205.116 7.36779 205.252 7.36779 205.252V209.039C6.01533 207.686 5.60834 206.605 4.93211 205.658C4.6613 204.576 4.52668 203.493 4.25588 202.411L4.6613 202.275C4.52668 201.735 4.25588 201.328 4.25588 200.922C4.12126 199.975 3.98507 198.894 3.85045 197.676C3.98507 197.541 4.52668 197.405 4.79749 197.136L3.71427 195.512C4.79749 195.647 5.47372 195.782 6.14995 195.782C6.14995 195.512 6.28457 195.376 6.14995 195.242C4.79749 194.024 5.74452 192.941 6.28457 191.859C6.55538 191.317 7.50241 191.183 7.77322 190.641C8.85487 188.612 10.6143 186.989 10.6143 184.419C10.6143 183.201 11.0197 181.849 11.1544 180.631C11.4252 178.331 11.696 176.032 11.8322 173.732C12.1014 170.757 11.8322 167.779 12.5084 164.94C13.59 160.204 14.9425 155.469 16.4312 150.736C17.5128 147.353 18.7306 144.106 20.0831 140.725C22.1134 135.449 24.0059 130.173 26.5762 125.167C30.2297 117.863 34.4233 110.829 38.4806 103.659C41.0509 99.1951 43.7574 95.0015 46.597 90.6717C49.3035 86.4782 52.0084 82.15 55.1203 78.2272C59.4485 72.6812 64.1837 67.5406 69.4589 62.94C74.8703 58.0702 80.0109 53.0658 85.8277 48.6015C93.404 42.7846 101.384 37.644 109.907 33.1797C116.806 29.5277 123.975 26.6866 131.146 23.9801C135.745 22.2222 140.75 21.4114 145.485 19.9227C150.896 18.1633 156.307 17.3524 161.988 17.2162C165.642 17.0816 169.159 16.6762 172.811 16.2708C176.057 16 179.304 15.7292 182.821 15.3237C182.416 15.8638 182.28 16.1346 182.145 16.4054C180.656 18.5703 179.033 20.7336 177.546 22.8984C176.328 24.6579 174.976 26.5504 173.758 28.3099C171.593 31.151 169.294 33.9921 167.265 36.9678C164.153 41.4322 161.312 46.0312 158.065 50.4955C154.819 54.8237 151.302 58.8827 147.92 63.0762C143.456 68.8931 139.262 74.8445 134.798 80.6613C130.739 86.2089 126.411 91.4842 122.488 97.0302C118.971 101.9 115.859 107.041 112.478 112.047C107.472 119.487 102.467 126.791 97.4614 134.231C93.5386 139.913 89.6159 145.459 85.5569 151.141C85.2861 151.547 84.8807 151.683 84.4753 151.952C84.2045 152.223 83.6628 152.494 83.6628 152.764C83.3936 153.711 83.3936 154.658 82.9866 155.469C81.905 157.5 80.8233 159.528 79.6055 161.422C78.9292 162.504 77.9822 163.451 77.1698 164.533C76.899 164.398 76.7644 164.263 76.4935 164.263C77.0352 162.909 79.3347 162.099 78.253 160.07C77.5768 161.152 76.899 162.099 76.2227 163.18L74.5995 166.427C75.1411 166.834 76.0881 167.103 75.1411 167.915C74.7357 168.592 74.3287 169.402 73.9232 170.08C74.0594 170.08 74.0594 170.215 74.1941 170.215C74.5995 169.673 75.0065 169.268 75.4119 168.726C75.5465 168.726 75.6827 168.862 75.8173 168.862C75.4119 170.215 74.5995 171.433 73.9232 172.651C73.3816 173.732 72.0292 174.543 71.0821 175.355C71.2183 175.49 72.1654 175.897 72.3 176.032C72.7054 175.49 72.8416 175.761 73.247 175.221C73.5178 175.626 73.9232 174.95 74.0594 175.355C74.4649 174.814 74.8703 174.408 75.0065 174.003C75.5465 172.651 76.3589 171.567 77.7114 171.027C78.253 170.757 78.6584 170.35 79.0638 169.944C83.1228 165.751 87.3164 161.693 90.9683 157.229C96.6505 150.329 101.791 143.159 107.201 136.125C109.502 133.149 112.207 130.173 114.641 127.332C114.912 127.468 115.183 127.468 115.319 127.603C115.048 130.444 114.777 133.42 114.641 136.261C114.236 141.265 113.965 146.271 113.559 151.412C113.425 153.441 113.559 155.469 113.425 157.5C113.425 158.04 113.018 158.445 113.018 158.987C113.018 160.339 113.425 161.828 113.425 163.18C113.018 168.186 112.478 173.056 112.071 178.06C111.936 179.144 112.478 180.225 112.749 181.172C112.612 181.038 112.478 180.902 112.071 180.631C112.071 188.478 113.559 196.189 112.342 203.9C112.883 203.763 113.154 203.629 113.154 203.358C113.289 202.411 113.559 201.464 113.559 200.517C113.696 199.706 113.559 198.894 113.559 197.947V196.594C113.696 194.158 114.236 191.588 113.965 189.154C113.696 186.448 113.696 183.877 114.236 181.307C114.506 180.225 114.101 178.873 114.777 177.52V179.549C114.641 187.26 114.912 194.971 113.83 202.682C113.696 203.358 114.236 204.576 112.749 204.44C112.612 204.44 112.478 205.116 112.207 205.523C111.531 206.875 113.018 208.633 111.665 209.986C111.395 210.256 111.936 211.474 112.071 212.287C112.071 212.556 112.207 212.827 112.071 212.963C111.531 213.91 111.531 213.91 112.342 214.045C112.478 217.02 112.749 219.727 112.883 222.566H113.289C115.048 217.426 113.965 212.151 114.912 206.875C115.048 209.039 115.183 211.204 115.048 213.503C115.048 217.02 114.912 220.403 114.777 223.92C114.777 224.597 114.641 225.273 114.506 225.949C114.101 227.843 113.965 229.737 113.289 231.495C112.749 232.848 113.018 234.878 113.018 236.501V241.64C113.018 241.776 113.425 242.182 113.425 242.723C113.559 243.941 112.883 245.159 113.289 246.512C113.425 246.782 113.154 247.188 113.018 247.459C112.883 247.864 112.749 248.269 112.883 248.675L113.289 250.705C113.289 250.84 113.425 250.976 113.559 251.245C113.696 250.705 113.696 250.298 113.696 250.163C115.995 250.434 114.777 252.463 115.859 253.546C115.319 253.815 114.912 253.952 114.912 254.086C115.048 254.628 115.319 255.033 115.319 255.575C115.319 256.791 115.183 257.874 115.048 259.092C115.048 262.203 114.912 265.314 114.912 268.29C114.912 268.696 115.048 269.103 115.048 269.508C115.048 269.779 114.912 270.05 114.912 270.455V273.296H115.453C115.183 273.702 114.912 274.107 114.506 274.512C114.372 274.512 113.965 274.512 113.965 274.378V257.333H111.936C111.665 265.449 112.342 272.755 110.854 280.329C109.231 280.465 108.69 280.736 106.932 280.736C102.738 280.736 98.5446 280.736 94.351 280.871C89.3451 280.871 84.4753 281.007 79.4693 281.007C77.0352 281.007 74.4649 281.276 72.0292 281.276C68.7826 281.276 65.4015 280.871 62.155 280.871C57.149 280.871 52.2792 281.276 47.2748 281.412C43.6212 281.547 39.9693 281.547 36.3173 281.683C33.8817 281.818 31.446 281.954 29.0119 282.223C27.9302 282.36 26.9832 282.765 25.6291 283.17C25.2237 283.17 24.2767 283.036 23.4658 283.17C22.1134 283.441 20.8955 284.254 19.5431 284.523C17.5128 284.93 16.9728 285.47 17.242 287.5V288.853C16.9728 288.582 16.5658 288.311 16.295 288.176C16.1603 288.176 16.0257 288.311 16.0257 288.311C16.1603 288.716 16.4312 288.987 16.5658 289.394C17.1074 289.123 17.7836 288.447 18.3252 288.447H20.2193C19.9485 288.447 19.8123 289.258 19.4069 289.934C20.4885 289.529 21.1663 289.258 21.8426 288.987C21.9772 289.394 21.9772 289.934 21.9772 290.07C23.8713 289.934 25.6291 289.394 27.2524 289.8C32.5292 291.152 37.9406 291.694 43.3504 292.234C46.8678 292.505 50.2505 292.641 53.7678 292.775C58.7722 293.046 63.7782 293.317 68.7826 293.317C72.9762 293.317 77.0352 292.912 81.2287 292.912C87.0456 292.912 92.8624 293.181 98.6792 293.317C99.8971 293.317 101.25 293.181 102.602 293.181H112.478C121.27 292.912 130.063 292.775 138.857 292.505C143.861 292.37 149.002 292.099 154.008 291.965L169.428 291.558C175.381 291.423 181.333 291.423 187.15 291.287C191.614 291.287 195.944 291.152 200.406 291.017C205.412 290.881 210.553 290.476 215.557 290.205C218.264 290.07 220.969 289.8 223.675 289.529C226.922 289.258 230.303 288.853 233.55 288.716C238.419 288.447 243.425 288.311 248.295 288.04C254.383 287.635 260.47 287.093 266.693 286.959C272.375 286.688 278.192 286.824 283.872 286.688C288.878 286.553 293.883 286.282 299.023 286.148L307.547 285.741C307.547 285.741 313.227 285.606 316.068 285.335C320.938 285.064 325.808 284.523 330.678 284.388C333.79 284.254 336.902 284.388 340.012 284.254C345.018 284.117 350.159 283.847 355.163 283.847C357.057 283.847 359.087 284.117 361.521 284.254C360.44 285.201 359.764 285.741 358.951 286.417C359.493 286.553 360.033 286.824 360.574 287.093C360.574 287.229 360.44 287.364 360.44 287.635C359.764 287.635 359.087 287.771 358.41 287.771C358.14 288.447 357.87 288.716 357.599 290.07H360.033C359.087 290.07 358.275 291.287 357.328 292.099C357.464 292.234 357.599 292.234 357.733 292.37C356.246 291.828 355.299 292.099 354.758 293.588C355.163 293.722 355.434 293.722 355.839 293.722C355.705 294.128 355.57 294.535 355.434 295.075C355.299 295.346 355.163 295.616 355.163 296.022L354.758 295.616C354.758 295.346 354.758 295.075 354.623 294.804C353.811 295.616 352.593 296.158 353.269 297.916C352.729 298.187 352.053 298.458 351.376 298.863C351.511 299.134 351.782 299.405 351.917 299.81C350.7 299.945 349.482 300.215 349.753 301.704C350.293 301.839 350.835 302.11 351.24 302.244C350.564 302.515 349.888 302.92 349.212 303.191C349.075 303.462 348.941 304.138 348.67 304.274C346.776 304.68 347.859 305.356 348.399 306.032C347.994 306.303 347.588 306.574 347.183 306.709C347.588 306.845 347.859 306.979 348.13 307.25C347.723 307.521 347.452 307.656 347.183 307.792C347.452 307.926 347.859 308.197 347.994 308.197C347.452 308.603 346.776 309.144 345.965 309.82C345.965 310.091 345.965 310.226 346.1 310.497C345.56 311.038 345.018 311.578 344.476 312.391C343.936 313.202 343.666 314.285 342.989 315.096C340.148 318.208 338.118 321.86 334.466 324.295C333.114 325.242 331.896 326.459 330.678 327.676C328.244 329.976 326.079 332.546 323.509 334.711C320.127 337.552 316.61 340.122 312.957 342.693C308.494 345.803 304.029 348.915 299.565 351.891C297.129 353.514 294.424 354.732 291.854 356.22C289.284 357.708 286.85 359.062 284.278 360.549C282.655 361.632 281.167 363.119 279.408 363.931C274.944 365.825 270.21 367.449 265.611 369.207C265.204 369.341 264.935 369.477 264.528 369.612C261.147 371.101 257.9 372.724 254.517 373.942C251.406 375.023 248.161 375.836 244.912 376.512C243.831 376.783 242.613 376.512 241.397 376.647C239.096 377.052 236.796 377.594 234.497 377.865C228.545 378.677 222.592 379.217 216.641 380.029C213.123 380.435 209.741 381.111 206.223 381.517C203.789 381.653 201.219 381.382 198.783 381.382C197.025 381.382 195.131 381.787 193.372 381.517C190.532 381.111 187.691 380.435 184.85 379.893C184.174 379.759 183.227 379.488 182.685 379.759C181.604 380.299 180.656 379.488 179.575 379.759C178.899 379.893 178.222 379.353 177.545 379.353C177.005 379.217 176.328 379.488 175.652 379.353C174.163 378.946 172.811 378.406 171.188 378.541C169.564 378.677 167.941 377.865 166.182 377.459C163.748 376.917 161.448 376.376 159.012 375.836C158.065 375.565 157.255 375.16 156.308 374.618C156.037 374.753 155.63 375.023 155.09 375.023C152.79 374.618 150.491 374.483 148.326 373.671C146.432 372.995 144.674 372.048 142.644 372.319C142.104 372.453 141.697 372.182 141.156 372.182C140.75 371.642 140.344 370.559 139.939 370.559C137.232 370.695 135.609 368.396 133.309 367.72C132.092 367.313 131.146 365.96 129.928 365.555C126.953 364.337 124.517 361.766 121.136 361.361C120.052 361.225 118.971 360.685 117.753 360.278C118.158 360.819 118.429 361.225 118.835 361.632L118.564 361.901C114.912 359.738 111.26 357.573 107.608 355.544C107.066 355.408 106.661 354.868 106.254 354.597L102.602 352.162C102.197 351.891 101.384 351.485 101.384 351.62C100.573 352.569 99.7609 351.756 99.2208 351.485C95.5673 348.915 91.3737 347.292 87.8564 344.451C86.3693 343.234 84.6099 342.422 83.5282 340.933C81.6342 338.634 79.3347 337.011 76.7644 335.658C74.7357 334.576 72.8416 333.359 70.9475 332.141C70.0005 331.465 69.0534 330.654 69.0534 329.165C69.0534 328.218 68.648 327.271 67.4302 327.813C66.8886 327 66.3485 326.053 65.6723 325.782C64.049 325.106 62.9658 323.89 61.748 322.807C60.5317 321.725 59.5847 320.236 58.096 319.696C55.3911 318.613 53.7678 316.314 52.1446 314.419C48.3564 309.955 44.9737 305.085 41.4564 300.35C41.1871 299.945 40.6455 299.674 40.2401 299.268L40.1039 299.405C40.7801 300.757 41.4564 301.975 42.1342 303.327C41.998 303.462 41.7272 303.598 41.5926 303.733C40.7801 302.786 39.8331 301.839 39.0223 300.892C38.8861 301.028 38.7514 301.162 38.6168 301.162L48.3564 316.584C49.1673 317.802 49.8435 319.018 50.6559 320.236C50.5213 320.372 50.3851 320.507 50.1143 320.642C48.6272 320.372 47.2748 319.289 46.597 318.071C45.3807 315.908 44.0267 314.556 41.3218 314.825C41.0509 313.878 40.7801 312.796 40.6455 311.849C40.1039 311.849 39.6985 311.849 38.7514 311.714C40.6455 314.69 42.2688 317.261 44.0267 320.236C43.3504 319.831 42.945 319.56 42.6742 319.425C45.1099 321.996 46.8678 325.242 49.9797 326.865C50.6559 329.976 54.1733 331.464 54.9841 334.44C54.3079 334.306 53.7678 334.169 53.0916 334.035C52.0084 332.682 50.7905 331.33 49.5743 329.841C49.8435 330.788 50.2505 331.599 50.7905 332.277C52.4138 334.306 53.9024 336.334 55.7965 338.094C56.4728 338.77 57.4198 339.041 57.4198 340.257C57.6906 339.986 57.9614 339.852 58.5014 339.581C58.2306 340.122 58.096 340.393 57.9614 340.799C58.5014 340.799 58.9084 340.933 59.3139 340.933C59.5847 341.746 59.1777 342.964 60.8009 342.693C60.9371 342.693 61.0717 342.827 61.2079 342.964C61.8842 344.721 62.9658 344.721 64.4545 344.045C64.7253 343.911 65.4015 344.045 65.5361 344.316C66.2123 345.803 67.1594 345.939 68.3772 344.858C68.3772 345.534 68.5118 346.21 68.5118 346.75H69.0534C69.0534 346.481 68.9188 346.074 68.9188 345.398C69.5951 345.939 70.0005 346.21 70.2713 346.481C71.6238 348.373 72.8416 350.133 74.7357 351.62C77.306 353.785 79.6055 356.084 82.0396 358.115C86.7748 362.037 92.05 365.284 97.3268 368.26C103.82 371.912 110.042 375.836 116.671 379.352C124.651 383.547 133.175 386.386 141.967 388.417C145.214 389.093 148.326 389.769 151.572 390.58C154.413 391.392 157.255 392.61 160.094 393.286C164.424 394.233 168.888 395.044 173.216 395.857C174.163 395.991 175.11 396.127 176.192 396.262V396.533C177.41 396.533 178.899 395.991 179.169 396.397C179.846 397.48 180.386 396.938 181.198 396.804C182.145 396.533 183.227 396.533 184.308 396.533C188.097 396.668 191.749 397.48 195.537 397.209C196.349 397.209 197.567 396.533 198.243 397.885C198.514 397.749 198.649 397.615 198.919 397.48C199.459 397.344 200.137 397.344 200.677 397.209V397.48C200.406 397.615 200.137 397.615 199.596 397.751C200.272 397.885 200.677 398.02 201.084 398.156C200.813 398.427 200.677 398.427 200.406 398.562C200.137 398.696 199.73 398.832 199.19 399.238C204.06 400.185 208.659 400.321 212.718 399.238V398.427H213.258C213.258 398.696 213.394 398.967 213.529 399.238C219.751 399.779 225.839 398.967 231.656 396.938C232.197 397.615 232.603 398.562 233.415 397.209C233.686 396.804 234.362 396.668 234.902 396.533C236.12 396.262 237.609 395.72 238.69 396.127C239.908 396.533 240.313 395.45 241.26 395.45C242.884 395.45 244.372 395.315 245.859 395.044C246.672 394.91 247.483 394.503 248.43 394.233C248.43 394.097 248.43 393.963 248.295 393.826C247.348 393.692 246.266 393.557 245.454 393.557C247.077 392.745 248.566 392.068 250.053 391.392C250.053 391.527 250.189 391.527 250.189 391.663C249.782 391.798 249.513 392.339 248.971 392.339H250.865C250.46 392.339 249.918 393.557 249.242 394.368C254.112 393.15 258.576 392.068 262.905 390.987V390.716C262.365 390.851 261.958 390.851 261.552 390.987C261.417 388.146 264.528 389.093 265.611 387.47C264.257 387.875 262.905 388.28 261.552 388.551V388.28C266.151 386.252 270.886 384.223 275.485 382.193C275.485 382.329 275.621 382.329 275.621 382.464C274.809 383.005 273.998 383.411 272.78 384.087C273.591 384.223 274.133 384.223 274.538 384.358C274.538 384.763 274.538 385.034 274.404 385.17C276.703 385.034 276.161 383.005 276.838 381.787C277.245 381.922 277.785 382.193 278.192 382.058C279.408 381.787 280.491 381.382 281.708 380.976C283.062 380.569 284.414 380.164 285.766 379.622C287.931 378.675 289.96 377.459 292.125 376.376C292.53 376.241 293.207 376.376 293.748 376.376C294.154 376.376 294.424 376.105 294.695 375.836C295.235 375.429 295.777 374.618 296.182 374.753C298.076 375.023 299.429 374.347 299.97 372.589C300.107 372.589 300.107 372.453 300.241 372.453C300.917 371.913 301.594 371.371 302.27 370.964C305.247 369.341 308.087 367.72 311.064 366.095C311.199 365.96 311.469 366.095 311.74 366.095C312.146 366.095 312.687 366.095 312.957 365.96C314.716 365.148 316.339 364.202 317.963 363.255C317.557 363.119 317.963 362.984 316.61 362.848V362.577C317.963 362.308 318.368 362.172 319.18 361.901L318.91 361.632C322.427 358.115 326.891 355.544 330.272 352.569C330.949 352.703 331.219 352.838 331.625 352.838C331.761 352.432 331.761 352.027 331.761 351.756C332.301 351.08 332.843 350.267 333.519 349.727C336.495 347.021 339.743 344.721 342.448 341.88C346.37 337.958 350.159 333.9 353.676 329.707C356.922 325.918 360.169 322.13 362.874 317.937C366.662 312.12 369.909 306.168 373.29 300.081C375.725 295.751 377.89 291.423 380.324 287.093C380.595 286.688 381.137 286.148 381.542 286.148C385.194 285.741 388.848 285.47 392.365 285.064C393.176 284.93 394.123 284.388 394.935 283.983C394.528 283.307 394.258 282.494 393.852 281.818C393.312 281.006 392.5 280.329 391.958 279.518C391.418 278.842 391.013 278.03 390.606 277.219C390.2 276.543 389.795 276.001 389.388 275.325C388.577 273.836 387.765 272.349 387.088 270.726C386.954 270.319 386.683 269.643 386.817 269.237C389.253 263.962 390.2 258.28 392.5 253.005C394.799 247.593 395.475 241.506 396.559 235.689C397.506 230.143 398.046 224.597 398.722 219.049C399.129 215.126 399.669 211.338 399.805 207.415C400.616 201.193 400.345 195.376 400.211 189.559ZM60.1247 340.528C59.1792 339.446 58.3668 338.228 57.4198 337.147L57.8252 336.74C59.3139 338.365 60.8025 339.986 62.2896 341.746C61.4787 341.34 60.5317 341.069 60.1247 340.528ZM62.2896 341.746C62.695 341.611 63.102 341.611 63.5074 341.475C63.9128 342.151 64.1837 342.964 64.5891 343.774C62.695 343.64 61.748 342.827 62.2896 341.746ZM202.977 397.615V397.209C205.547 396.938 207.983 396.667 210.553 396.398V396.804C207.983 397.209 205.547 397.48 202.977 397.615ZM237.067 394.097C235.173 394.504 233.144 394.773 231.25 395.044C230.574 395.18 229.763 395.857 229.492 394.639C229.221 394.773 228.951 394.773 228.68 394.91C229.356 396.938 230.979 395.315 232.332 396.127C229.356 396.533 226.515 396.804 223.675 397.209V396.938C224.486 396.804 225.433 396.668 226.246 396.533V396.127C224.892 395.991 223.539 395.857 222.187 395.857C221.781 395.857 221.24 396.398 220.834 396.533C220.293 396.668 219.751 396.804 219.075 396.804C216.775 396.938 214.476 396.938 212.311 397.074C212.176 397.074 211.906 396.938 211.771 396.938V396.533C220.834 395.315 229.763 394.097 238.826 392.881C238.961 393.15 238.961 393.421 239.096 393.692C238.285 393.692 237.743 393.963 237.067 394.097ZM239.096 392.745C242.208 392.339 245.049 392.069 248.024 391.663C241.802 393.421 239.773 393.692 239.096 392.745ZM121.27 119.621C125.6 113.67 130.063 107.717 134.393 101.629C135.745 99.8713 136.827 97.9772 138.181 96.2193C138.586 95.6777 139.126 95.4069 139.804 94.8653L139.668 94.5961C140.209 93.9183 140.75 93.3782 141.02 92.8366C141.697 91.755 142.104 90.5371 142.644 89.3193C142.78 89.0485 143.185 88.7792 143.185 88.7792C145.079 89.7247 145.079 87.696 145.755 87.0198C146.973 85.6673 148.191 84.1787 149.273 82.8262C150.084 81.7446 150.896 80.7975 151.572 79.5797C151.707 79.1743 151.302 78.498 151.167 77.9564H150.761C151.167 77.6856 151.572 77.2802 151.978 77.0094C152.114 77.0094 152.114 77.0094 152.249 76.8748C153.061 75.6569 153.872 74.4391 154.684 73.3574C156.307 71.1926 158.065 69.0277 159.959 67.1336C159.689 67.8098 159.418 68.4876 159.149 69.0277C159.283 69.0277 159.283 69.1639 159.418 69.1639C161.041 66.999 162.801 64.9703 164.424 62.8054C164.288 62.6708 164.153 62.5346 164.018 62.5346C163.342 63.2108 162.801 63.8871 162.124 64.5633C161.988 64.4287 161.854 64.2941 161.717 64.2941C163.071 62.5346 164.424 60.7767 165.776 58.7465C166.047 59.1535 166.318 59.6935 166.858 60.7767C167.4 59.4227 167.941 58.4757 168.347 57.5302C167.941 57.9356 167.4 58.341 166.994 58.7465L166.587 58.3411L169.023 54.6891C171.593 51.0356 174.163 47.249 176.734 43.5955C177.681 42.243 178.899 41.1614 179.709 39.8089C182.28 34.6683 186.339 30.6093 189.449 25.8742C190.127 24.9287 191.072 24.1163 191.885 23.3039C192.561 22.493 193.103 22.7638 193.644 23.4401C197.296 28.039 200.948 32.7742 204.6 37.3732C207.307 40.7559 210.011 44.0025 212.582 47.5182C215.694 51.848 218.669 56.1762 221.781 60.5059C225.299 65.5103 228.816 70.5163 232.197 75.6569C237.338 83.2316 242.208 90.8079 247.348 98.3826C251.136 103.93 254.924 109.34 258.576 114.888H251.676C245.319 114.751 238.826 114.21 232.468 114.481C223.81 114.888 215.017 115.833 206.36 116.509C195.402 117.456 184.308 117.593 173.353 117.593C169.428 117.593 165.505 118.133 161.583 118.403C156.848 118.674 152.249 118.945 147.513 119.081C141.967 119.35 136.556 119.487 131.01 119.621C127.9 119.757 124.651 119.621 121.27 119.621ZM276.432 181.849V183.066C276.298 183.066 276.161 183.201 275.891 183.201C275.351 181.307 274.809 179.278 274.133 177.384C272.78 173.461 271.292 169.539 268.858 166.021C266.151 162.233 263.717 158.31 261.01 154.388C260.334 153.441 259.387 152.628 258.576 151.817C255.735 148.705 252.894 145.459 249.242 143.159C243.831 139.778 238.285 136.937 232.332 134.501C230.708 133.825 229.221 133.014 227.598 132.067H230.845L253.977 131.662C258.982 131.526 263.852 131.526 268.858 131.255C270.075 131.255 270.752 131.662 271.428 132.744C272.646 134.772 273.862 136.801 275.214 138.831C275.351 139.1 275.621 139.507 275.621 139.913C275.621 142.889 275.621 146.001 275.756 148.976C275.892 152.088 276.161 155.064 276.298 158.176C276.298 161.286 276.027 164.533 276.161 167.779C276.298 172.38 276.432 177.113 276.432 181.849ZM130.875 136.532C137.234 136.261 143.32 135.854 149.544 135.585C154.413 135.314 159.418 135.178 164.288 134.908C166.318 134.772 168.212 134.638 170.241 134.908C168.076 135.99 165.912 137.072 164.018 138.426C161.583 140.048 159.283 142.212 156.848 143.972C154.413 145.73 152.249 147.895 150.22 150.194C147.65 153.306 144.808 156.011 142.104 158.987C140.209 161.152 138.045 163.18 136.421 165.48C134.122 168.457 132.093 171.704 129.928 175.085C130.604 162.233 131.417 149.518 130.875 136.532ZM219.211 266.667C214.881 267.749 210.418 268.966 205.954 269.508C202.166 270.05 198.243 269.913 194.32 269.913C190.803 269.913 187.42 269.779 183.903 269.508C179.98 269.103 176.057 268.696 172.269 266.938C169.023 265.449 165.642 264.097 162.395 262.473C159.149 260.85 155.901 258.956 153.466 255.98C151.707 253.815 149.273 252.058 147.108 250.163C147.513 251.787 148.46 253.139 149.949 254.086C149.273 254.899 148.326 254.492 146.973 252.328C146.568 252.598 146.161 252.734 145.89 252.868C146.297 251.921 146.703 250.976 147.108 250.163C146.568 249.082 145.89 247.864 145.35 246.782C144.267 245.023 143.185 243.129 142.238 241.371C141.967 240.964 141.967 240.559 141.697 240.153C141.02 239.341 140.344 238.53 139.804 237.717C138.721 236.094 137.774 234.336 136.421 232.713C136.421 233.118 136.556 233.524 136.556 234.065C136.421 234.065 136.287 234.2 136.287 234.2L133.446 227.302C133.309 227.302 133.309 227.302 133.175 227.438L135.61 236.365C135.474 236.365 135.34 236.501 135.203 236.501C134.798 235.959 134.393 235.418 134.122 234.742C133.851 233.66 133.04 233.66 132.362 234.065C131.957 234.336 131.686 235.283 131.822 235.689C132.769 237.988 133.851 240.288 134.933 242.589C135.203 243.4 135.474 244.076 135.88 244.888C136.016 245.159 136.421 245.428 136.421 245.835C136.963 246.917 137.368 247.999 138.045 248.946C139.262 250.569 140.615 252.192 141.833 253.815C143.051 255.439 144.132 257.198 145.214 258.821C145.35 259.092 145.755 259.092 145.89 259.227C146.568 261.256 148.867 262.744 150.491 261.933C150.896 265.044 154.277 266.127 155.631 269.103C154.008 268.426 152.79 267.885 151.707 267.343C151.572 267.479 151.572 267.614 151.438 267.885C153.061 268.696 154.684 269.508 156.171 270.455C157.524 271.266 158.878 272.078 160.094 273.025C161.719 274.512 163.611 275.325 165.912 275.866C165.776 275.459 165.642 275.325 165.642 275.325C169.428 277.084 173.353 278.977 176.328 280.465C162.259 280.736 147.244 281.007 131.686 281.276C131.686 278.706 131.552 276.272 131.552 273.702C131.552 272.62 131.822 271.673 131.686 270.59C131.281 264.367 131.281 258.145 130.47 252.058C129.657 245.564 129.657 239.206 129.794 232.713C129.928 229.196 129.657 225.544 129.523 222.026C129.523 217.291 129.523 212.692 129.657 207.957C129.657 207.281 129.928 206.739 130.199 206.063H130.604C130.739 206.334 130.604 206.739 130.875 206.875C131.281 207.281 131.957 207.957 132.228 207.822C133.04 207.281 134.256 206.739 134.527 205.928C135.203 204.305 135.474 202.546 135.474 200.922C135.474 199.706 136.016 198.894 136.556 198.081C136.827 197.676 136.963 197.27 137.234 196.729C136.692 196.323 136.151 196.053 135.474 195.512C136.016 194.024 135.88 192.264 137.91 191.454C138.181 191.317 138.181 190.641 138.315 190.236C138.45 189.154 138.586 187.936 138.721 186.855C138.992 187.26 139.126 187.395 139.397 187.665C139.533 187.395 139.668 187.26 139.668 187.26C139.668 186.718 139.533 185.637 139.668 185.637C141.291 185.366 140.615 183.608 141.427 182.796C141.562 182.661 141.291 182.254 141.291 181.985C141.291 181.714 141.291 181.307 141.427 181.307C143.32 180.902 143.051 178.873 144.267 177.926C144.674 177.655 144.808 177.25 145.35 176.573C146.432 178.467 144.538 179.414 144.403 180.767C146.703 179.414 147.379 176.168 146.026 175.221C146.568 174.814 147.108 174.274 147.513 173.732C149.002 172.109 150.625 170.62 151.978 168.997C152.925 167.779 153.466 166.292 154.413 165.074C154.955 164.398 156.037 163.856 156.848 163.451C159.283 162.099 161.583 160.61 163.071 158.31C163.342 158.04 163.748 157.769 164.153 157.5C164.558 157.229 165.371 157.229 165.505 156.822C165.642 156.553 165.235 155.876 164.964 155.469C165.505 155.199 166.047 154.658 167.129 154.117C166.723 154.929 166.589 155.469 166.318 156.011L166.994 156.687C168.212 155.74 170.106 154.658 171.322 153.846C171.322 153.711 170.646 153.17 170.646 153.17C169.835 153.577 168.617 154.253 167.4 154.793C167.67 154.388 167.67 154.117 167.805 153.982C169.699 152.764 171.593 151.547 173.622 150.6C178.357 148.435 183.092 146.271 187.826 144.241C188.638 143.836 189.72 144.106 190.667 144.106C191.072 144.106 191.343 144.106 191.75 143.972C193.913 143.296 196.078 142.619 198.243 142.078C199.19 141.807 200.272 141.672 201.219 141.672C205.278 141.807 209.335 141.807 213.394 142.078C215.152 142.212 216.775 142.619 218.399 143.159C220.429 143.836 222.592 144.783 224.486 145.73C226.786 146.948 228.951 148.3 231.115 149.789C235.038 152.359 238.69 155.199 242.613 157.5C246.401 159.799 249.377 162.909 251.812 166.427C254.788 170.62 258.171 174.408 259.523 179.549L261.552 188.478C261.958 190.101 262.905 191.724 262.499 193.618C261.823 197 261.281 200.517 260.741 203.9C260.47 205.252 260.2 206.605 260.334 207.957C260.605 212.151 258.982 215.803 257.359 219.591C256.817 220.809 256.006 222.026 255.33 223.379C255.464 223.513 256.277 223.92 256.411 223.92L257.629 221.485C257.764 221.485 257.764 221.485 257.9 221.621C257.224 223.513 256.682 225.544 256.006 227.438C254.383 231.631 252.76 235.959 250.731 240.018C249.648 242.318 247.754 244.212 246.401 246.375C245.049 248.269 243.967 250.298 242.613 252.058C241.397 253.546 240.179 255.033 238.556 256.116C234.902 258.821 231.115 261.526 227.193 263.691C224.757 265.18 221.916 265.991 219.211 266.667ZM147.108 259.498L146.973 259.632C146.703 259.498 146.297 259.361 146.026 259.092L142.78 254.222C142.509 253.815 142.374 253.41 142.509 252.868C143.996 255.168 145.485 257.333 147.108 259.498ZM231.25 278.03C237.338 275.459 242.344 271.808 246.943 267.614C247.619 266.938 248.295 266.261 249.108 265.72C254.788 262.203 258.982 257.333 262.77 251.921C267.098 245.699 269.939 238.664 273.457 232.037C273.727 231.495 273.998 230.954 274.269 230.548C273.998 245.97 275.756 261.121 277.785 276.407C262.499 276.948 246.943 277.49 231.25 278.03ZM368.422 273.972C368.285 274.243 368.015 274.512 367.88 274.783C367.744 274.512 367.744 274.107 367.609 273.567C366.797 275.73 365.039 274.649 363.821 274.649C356.517 274.783 349.077 274.783 341.771 274.783C334.737 274.783 327.567 274.783 320.533 274.919C318.233 274.919 315.798 275.459 313.498 275.596C307.952 275.866 302.406 276.001 296.86 276.136C296.453 276.136 296.048 275.459 295.371 274.919C295.237 275.19 294.966 275.596 294.559 276.136C294.424 275.866 294.154 275.596 293.883 275.19C293.748 275.596 293.612 276.001 293.477 276.272H293.072C292.801 274.378 292.26 272.62 292.26 270.726C292.26 266.667 292.665 262.61 292.801 258.551C292.936 256.657 292.801 254.899 292.801 253.139C293.343 253.546 293.748 253.815 294.29 254.222C294.559 253.681 294.83 253.275 295.101 252.868C295.101 252.868 294.83 252.734 294.559 252.463C294.83 252.328 295.101 252.058 295.101 251.923C295.237 251.516 295.506 251.111 295.506 250.84C295.506 249.893 295.237 249.082 295.101 248.269C295.237 248.269 295.371 248.269 295.506 248.135L296.318 252.192H296.724C296.184 251.245 297.942 250.434 296.453 249.351C296.318 249.216 296.589 248.404 296.589 247.999C296.184 247.188 295.913 246.375 295.506 245.294C295.642 245.159 296.048 245.023 296.453 244.888C295.913 244.617 295.506 244.347 295.101 244.21C296.453 242.994 296.453 242.318 295.237 240.964C295.506 240.829 295.777 240.829 295.777 240.695C295.777 239.477 295.777 238.259 295.506 237.041C295.237 235.689 295.913 234.065 293.883 233.255C294.019 233.66 294.154 233.931 294.424 234.336C294.424 234.336 294.019 234.471 293.612 234.742C291.854 233.118 292.936 230.954 292.53 228.519C293.477 228.79 294.154 229.061 294.83 229.33C294.559 228.385 293.883 227.302 293.477 226.084H292.936V217.157C292.936 217.291 293.883 217.291 294.424 217.426C294.424 217.291 294.559 217.157 294.559 217.02C294.154 216.479 293.612 215.939 293.072 215.262L293.343 214.992C292.26 213.639 292.801 211.745 292.801 211.34V201.869C294.154 203.222 292.125 204.981 294.154 205.792V204.44H294.019C293.883 202.411 293.883 200.382 293.748 198.352H293.477C293.343 198.623 293.343 198.759 293.207 199.028H292.936C293.207 188.342 293.477 177.655 293.748 166.698C295.101 168.457 296.589 170.08 297.536 171.838C300.647 177.52 304.706 182.39 308.494 187.531C311.74 191.995 314.716 196.865 317.692 201.464C321.344 207.01 324.861 212.556 328.515 218.104C331.219 222.297 334.061 226.491 336.902 230.548C339.472 234.2 342.177 237.717 344.883 241.235C347.183 244.347 349.617 247.459 351.917 250.569C354.623 254.357 357.328 258.145 360.034 261.797C361.387 263.691 362.874 265.585 364.363 267.479C365.173 268.561 366.391 269.373 367.204 270.05C367.067 270.05 366.933 270.05 366.662 269.913C367.067 270.455 367.338 270.86 367.609 271.131C369.098 271.942 369.232 272.755 368.422 273.972ZM375.32 240.153V239.206C375.32 239.477 375.455 239.882 375.32 240.153ZM379.919 180.496C379.784 180.496 378.972 179.684 378.837 179.549C378.701 179.954 378.837 180.36 378.567 180.902C378.432 180.496 377.485 180.631 377.485 180.225C377.349 182.119 378.296 184.013 378.161 185.908C378.567 185.637 380.19 185.501 380.595 185.095C380.731 185.231 381.001 185.366 381.137 185.366C378.432 187.395 379.108 189.425 380.324 191.724C380.595 192.264 381.408 193.348 380.595 194.429C380.324 194.7 380.731 195.512 380.866 196.189H381.271V196.458L380.055 196.865C379.784 196.458 378.161 195.647 378.161 194.971V201.869C379.514 202.275 379.514 204.169 380.055 205.116C380.324 204.71 380.461 204.44 380.595 204.034L380.731 204.169C380.595 204.981 380.461 205.792 380.19 206.605C379.919 207.822 379.648 208.904 379.514 210.122C379.514 210.256 379.784 210.527 379.784 210.662C378.296 214.045 379.108 217.833 378.567 221.35C378.161 223.92 378.567 226.625 378.296 229.33C378.025 231.631 377.485 234.065 376.943 236.365C376.809 236.77 376.538 236.907 375.862 237.177C376.131 235.554 375.996 234.471 375.725 232.984C375.591 232.984 373.831 232.037 373.697 232.037C373.697 233.931 374.778 236.501 375.185 238.664C374.778 238.53 373.155 237.583 373.021 237.583C372.75 239.206 372.75 241.371 372.615 243.129C372.479 244.481 371.261 245.699 371.126 247.188C371.126 247.999 372.073 248.54 371.937 249.893H373.021C373.021 247.188 374.238 244.752 374.238 241.911H374.644C374.778 242.182 375.185 242.453 375.049 242.589C374.778 244.076 374.238 245.699 374.373 247.188C374.373 247.999 375.049 248.811 374.778 249.758C374.508 250.569 374.373 251.381 374.238 252.598C374.102 251.921 373.968 251.652 373.968 251.245C373.831 251.245 372.615 251.111 372.479 251.111C372.344 251.921 373.426 252.734 373.291 253.41C373.155 253.546 373.021 253.546 372.75 253.681L368.285 247.188C364.768 242.047 361.251 236.907 357.733 231.631C356.786 230.277 355.975 228.925 355.299 227.572C351.106 220.403 346.507 213.503 341.366 206.875C337.442 201.869 334.331 196.458 330.678 191.183C327.297 186.178 323.914 181.307 320.533 176.303C319.315 174.679 317.828 173.191 316.745 171.433C313.227 165.887 310.117 160.204 306.6 154.658C303.624 150.058 300.376 145.595 297.265 141.131C296.184 139.642 295.101 138.019 294.019 136.396C293.883 136.125 293.748 135.854 293.748 135.449C293.477 132.473 293.207 129.497 293.072 126.656C293.072 123.949 293.343 121.245 293.343 118.403V115.969C293.343 115.293 293.477 114.751 293.477 114.075C293.612 113.939 293.748 113.67 293.883 113.534C289.96 113.534 285.903 113.399 281.978 113.534C279.41 113.67 278.056 112.587 276.298 110.694C271.157 104.876 267.369 98.248 262.905 92.0258C258.711 86.0728 254.383 80.2559 250.053 74.4391C246.537 69.7039 243.02 65.1049 239.503 60.3697C235.58 54.9599 231.792 49.5485 227.733 44.1371C222.863 37.644 217.859 31.151 212.853 24.6579C210.553 21.6806 207.983 18.8411 205.412 15.7292C207.17 16 208.794 16.2708 210.418 16.4054L216.912 16.8108C221.781 17.2178 226.651 17.487 231.521 18.1633C235.58 18.7049 239.637 19.5173 243.831 20.1935C252.76 21.6806 261.552 24.1163 270.075 26.9574C275.08 28.5807 279.95 30.7455 284.819 32.7742C295.777 37.2386 306.194 42.6484 316.474 48.3307C319.722 50.0885 321.614 52.9296 324.05 55.4999C327.568 59.1535 331.085 62.8054 334.466 66.5936C338.389 71.0579 342.042 75.6569 345.829 80.2559C349.212 84.3149 352.729 88.3722 356.11 92.4312C357.193 93.649 358.004 95.1361 358.951 96.4886C361.116 99.7351 363.55 102.847 365.444 106.364C366.798 108.935 367.609 111.91 368.556 114.751C369.909 118.945 371.261 123.004 372.615 127.198C373.561 130.308 374.373 133.554 375.049 136.801C375.591 138.966 375.455 141.265 376.131 143.43C376.943 146.271 376.131 149.382 376.943 152.223C377.078 152.494 377.214 152.899 377.349 153.17C377.89 153.711 378.296 154.251 377.485 155.064C377.349 155.199 377.349 155.74 377.485 156.146C377.754 155.876 377.89 155.606 378.161 155.199C378.161 155.469 378.296 155.605 378.296 155.74C378.296 156.282 378.161 156.822 378.296 157.363C378.296 157.634 378.567 158.04 378.701 158.31C378.972 158.04 379.243 157.905 379.784 157.5C381.001 162.099 381.137 166.698 381.137 171.433C381.137 175.897 381.948 180.36 380.055 184.69C380.461 183.201 379.514 181.849 379.919 180.496Z" fill="#DD3735"/>
<path d="M293.922 233.545C294.057 233.545 294.193 233.681 294.193 233.681L294.057 233.545C294.057 233.411 294.057 233.411 293.922 233.545ZM315.296 367.199C313.809 368.281 312.32 369.228 310.426 369.633C310.291 369.499 310.291 369.363 310.155 369.228C311.644 368.281 313.267 367.334 314.756 366.387C314.89 366.658 315.161 366.928 315.296 367.199ZM61.653 183.899C63.1401 182.005 64.6287 180.11 66.252 178.218C66.3866 178.353 67.4699 178.623 67.6045 178.758C66.1174 180.652 64.0871 183.222 62.6001 185.251C62.3293 184.982 61.9238 184.035 61.653 183.899ZM23.2347 250.185C22.1515 247.885 21.0698 245.45 19.9882 243.15C20.1228 243.016 21.0698 242.609 21.2044 242.609C22.6931 244.773 23.3693 247.344 24.451 249.643C24.451 249.643 23.3693 250.185 23.2347 250.185ZM57.7303 185.251C56.9178 186.469 56.107 187.821 55.2946 189.039C55.16 188.905 53.6713 189.581 53.5367 189.445C54.3475 188.228 56.3762 186.063 57.1886 184.846C57.3233 184.982 57.4595 185.116 57.7303 185.251ZM300.821 372.745C300.957 372.745 300.957 372.609 301.092 372.609C302.039 372.745 303.122 372.88 304.204 372.88C302.444 374.098 301.363 373.963 300.821 372.745ZM57.9995 190.933C58.1357 190.528 58.4065 190.121 58.6757 189.715C58.9465 189.715 59.3535 189.581 59.3535 189.581C59.8936 188.634 59.8936 187.958 60.4352 187.145C60.3006 187.011 60.1644 187.011 60.0298 186.874C59.2173 187.416 58.4065 188.092 57.5941 188.634C57.8649 188.905 57.8649 189.039 57.8649 189.31C56.7832 189.175 56.3762 189.715 55.8362 191.204C55.7 191.61 55.0238 191.744 54.3475 192.286C54.2129 192.557 54.0767 193.233 53.8059 193.909L53.9421 194.045C53.6713 194.314 53.2659 194.451 53.2659 194.451C52.4535 195.261 51.5064 195.939 50.6956 196.75C50.5594 197.156 50.4248 197.563 50.4248 197.968C51.3718 197.021 52.9951 195.261 54.2129 194.18L54.3475 194.314C54.8892 193.504 55.2946 192.691 55.8362 191.88C55.9708 192.015 55.9708 192.151 56.107 192.286C55.7 193.367 55.2946 194.585 54.8892 195.668C54.6184 195.803 54.2129 196.074 54.2129 195.939C53.6713 196.345 53.2659 196.885 52.7243 197.292L50.2902 198.915C48.9361 200.133 47.5837 201.214 46.0966 202.432C45.1496 203.919 44.2025 205.272 43.1193 207.031C44.7426 206.626 45.1496 207.302 45.0134 208.655C46.9074 208.925 47.0421 207.437 47.5837 206.355C47.7199 206.084 47.8545 205.543 48.1253 205.408C49.3431 204.326 50.6956 203.379 52.0481 202.296C52.3189 202.025 52.3189 201.485 52.3189 201.078C52.3189 200.944 51.6426 200.944 51.2372 200.809C52.4535 199.455 54.2129 197.156 55.4308 195.668C56.107 195.261 56.7832 194.721 56.7832 194.314C56.647 192.827 57.5941 192.422 58.6757 191.88C58.1357 191.475 57.9995 191.068 57.9995 190.933Z" fill="#DD3735"/>
<path d="M60.7061 189.445C60.1645 190.392 59.6244 191.204 59.0828 192.151L58.2704 191.744C57.7303 194.856 55.8363 197.563 53.9422 198.103C54.4838 198.373 55.0239 198.644 55.4308 198.508C55.8363 198.373 56.1071 197.697 56.3763 197.292L60.0298 192.015L61.2477 189.986L60.7061 189.445ZM15.6585 248.831C16.3347 248.831 17.0109 248.967 17.8234 248.967C17.8234 248.425 18.4996 248.562 18.4996 248.02H18.905C18.905 248.696 19.0412 249.238 19.0412 249.914H16.2001C16.0639 249.778 15.5239 248.967 15.6585 248.831ZM14.5768 242.609C14.1714 242.203 13.4936 241.798 13.4936 241.391C13.359 240.851 13.7644 240.174 14.1714 239.498C14.4406 240.444 14.5768 241.256 14.8476 242.203C14.7114 242.338 14.5768 242.474 14.5768 242.609ZM17.958 233.951C18.4996 235.305 19.0412 236.792 19.5812 238.144C19.4466 238.144 18.6342 238.551 18.4996 238.686C17.958 237.333 17.2817 235.845 16.7417 234.492C16.8763 234.358 17.6872 233.951 17.958 233.951ZM319.084 363.276C319.76 363.006 320.573 362.87 321.654 362.599C320.436 363.546 319.489 364.222 318.679 365.034C318.542 364.898 318.408 364.764 318.273 364.764C318.542 364.222 318.813 363.817 319.084 363.275V363.276ZM152.83 77.4362C153.641 76.8946 154.317 76.4892 155.129 75.9475L155.4 76.2183C154.588 77.3016 153.912 78.3832 152.965 79.7357C152.83 78.7886 152.83 78.247 152.694 77.5708C152.559 77.5708 152.694 77.5708 152.83 77.4362ZM192.465 145.886C193.682 145.346 194.9 144.804 196.389 144.128C196.253 144.939 196.253 145.48 196.253 146.022C195.847 145.886 195.306 145.751 194.9 145.751C194.089 145.886 192.601 146.969 191.924 147.104C191.788 147.104 192.465 146.022 192.465 145.886ZM293.923 260.601C294.193 261.953 296.764 262.629 294.193 263.982C294.599 264.253 295.004 264.389 295.411 264.66C295.411 264.794 295.275 265.065 295.14 265.2C294.87 265.336 294.328 265.607 294.057 265.47C293.923 265.47 293.652 264.929 293.652 264.66C293.652 263.442 293.788 262.224 293.923 260.601Z" fill="#DD3735"/>
</g>
<defs>
<clipPath id="clip0_7:137">
<rect width="400" height="400" fill="white"/>
</clipPath>
</defs>
</svg>
