<svg width="400" height="400" viewBox="0 0 400 400" fill="none" xmlns="http://www.w3.org/2000/svg">
<path d="M392.963 239.608C390.632 232.547 384.523 227.627 376.623 226.446C372.898 225.89 368.632 226.128 363.584 227.169C354.785 228.984 348.257 229.674 343.493 229.809C361.475 199.448 376.097 164.825 384.515 132.233C398.126 79.5354 390.853 55.5279 382.353 44.668C359.859 15.9263 327.04 0.484738 287.446 0.011397C266.326 -0.246381 247.783 3.92387 238.112 6.922C229.106 5.33402 219.421 4.44661 209.26 4.28225C190.216 3.97866 173.388 8.13005 159.009 16.6628C151.046 13.9718 138.272 10.177 123.517 7.75461C88.8151 2.05745 60.8476 6.49716 40.3906 20.9489C15.6188 38.4472 4.13465 68.8489 6.25885 111.31C6.93248 124.792 14.4745 165.809 26.3485 204.71C33.1728 227.069 40.4499 245.637 47.9775 259.902C58.6524 280.13 70.0746 292.042 82.8979 296.319C90.0861 298.715 103.145 300.391 116.881 288.953C118.621 291.061 120.943 293.156 124.026 295.101C127.941 297.571 132.728 299.588 137.508 300.783C154.738 305.091 170.877 304.013 184.645 297.977C184.729 300.425 184.795 302.765 184.85 304.785C184.942 308.062 185.032 311.275 185.152 314.279C185.968 334.598 187.35 350.396 191.446 361.449C191.67 362.058 191.973 362.984 192.293 363.966C194.335 370.223 197.753 380.695 206.444 388.898C215.447 397.394 226.335 400.001 236.306 400C241.307 400 246.079 399.344 250.264 398.447C265.184 395.25 282.127 390.379 294.384 372.927C305.971 356.428 311.604 331.579 312.624 292.424C312.756 291.317 312.878 290.26 312.996 289.253C313.075 288.573 313.156 287.877 313.237 287.184L315.968 287.424L316.671 287.471C331.866 288.164 350.446 284.941 361.857 279.641C370.874 275.456 399.766 260.204 392.963 239.608Z" fill="black"/>
<path d="M366.982 243.614C321.801 252.934 318.695 237.637 318.695 237.637C366.399 166.853 386.34 77.0034 369.131 55.0133C322.183 -4.97173 240.914 23.3973 239.558 24.1338L239.121 24.212C230.195 22.359 220.205 21.2552 208.978 21.0719C188.535 20.7369 173.028 26.4314 161.261 35.3548C161.261 35.3548 16.2843 -24.3697 23.0269 110.47C24.4613 139.156 64.1421 327.521 111.472 270.626C128.771 249.821 145.485 232.231 145.485 232.231C153.787 237.745 163.725 240.559 174.144 239.548L174.953 238.861C174.702 241.444 174.817 243.971 175.278 246.962C163.085 260.584 166.668 262.976 142.294 267.993C117.631 273.076 132.119 282.125 141.579 284.49C153.047 287.358 179.578 291.421 197.505 266.326L196.79 269.189C201.567 273.015 204.922 294.078 204.36 313.172C203.797 332.266 203.422 345.375 207.186 355.615C210.951 365.854 214.702 388.892 246.744 382.027C273.518 376.289 287.392 361.42 289.322 336.619C290.692 318.987 293.792 321.593 293.987 305.829L296.474 298.366C299.341 274.465 296.929 266.754 313.424 270.34L317.433 270.693C329.573 271.245 345.463 268.74 354.789 264.405C374.87 255.086 386.78 239.526 366.98 243.614H366.982Z" fill="#336791"/>
<path d="M169.746 123.298C165.676 122.732 161.988 123.256 160.122 124.668C159.072 125.463 158.748 126.384 158.661 127.018C158.427 128.696 159.603 130.552 160.325 131.51C162.37 134.219 165.357 136.082 168.314 136.493C168.742 136.552 169.168 136.581 169.592 136.581C174.523 136.581 179.005 132.742 179.4 129.908C179.894 126.359 174.742 123.994 169.746 123.298Z" fill="white"/>
<path d="M304.626 123.411H304.626C304.238 120.629 299.287 119.836 294.589 120.489C289.899 121.143 285.35 123.26 285.73 126.048C286.035 128.216 289.948 131.917 294.583 131.916C294.974 131.916 295.369 131.89 295.767 131.835C298.86 131.406 301.13 129.442 302.208 128.309C303.85 126.585 304.8 124.661 304.626 123.411Z" fill="white"/>
<path d="M382.016 242.555C380.294 237.346 374.749 235.669 365.537 237.572C338.183 243.217 328.388 239.307 325.17 236.938C346.432 204.548 363.923 165.397 373.358 128.867C377.828 111.564 380.297 95.4943 380.498 82.397C380.721 68.019 378.274 57.4555 373.223 51.002C352.862 24.9853 322.981 11.0303 286.808 10.6468C261.941 10.3674 240.931 16.7319 236.858 18.5211C228.28 16.3879 218.929 15.0784 208.75 14.9113C190.081 14.6095 173.946 19.0789 160.585 28.1882C154.782 26.029 139.784 20.8806 121.444 17.9265C89.7349 12.8204 64.5382 16.6888 46.5566 29.4277C25.1009 44.6285 15.1958 71.8003 17.1152 110.187C17.761 123.103 25.1189 162.832 36.7323 200.881C52.0185 250.959 68.6339 279.309 86.1179 285.14C88.164 285.822 90.5244 286.3 93.1255 286.3C99.5035 286.3 107.322 283.425 115.458 273.645C128.971 257.388 141.588 243.765 146.239 238.815C153.111 242.505 160.661 244.564 168.384 244.771C168.398 244.973 168.418 245.175 168.436 245.376C166.887 247.214 165.616 248.825 164.533 250.2C159.182 256.992 158.068 258.405 140.845 261.952C135.946 262.963 122.933 265.645 122.743 274.766C122.536 284.731 138.123 288.917 139.9 289.36C146.089 290.91 152.052 291.674 157.738 291.674C171.568 291.673 183.738 287.128 193.464 278.334C193.164 313.862 194.646 348.87 198.911 359.537C202.404 368.268 210.94 389.609 237.901 389.607C241.855 389.607 246.211 389.147 251.001 388.121C279.137 382.088 291.355 369.652 296.082 342.236C298.611 327.584 302.952 292.595 304.993 273.827C309.301 275.171 314.849 275.786 320.845 275.785C333.351 275.785 347.781 273.128 356.831 268.928C366.997 264.207 385.343 252.62 382.016 242.555ZM315.011 115.732C314.918 121.273 314.155 126.303 313.347 131.554C312.477 137.2 311.577 143.039 311.351 150.126C311.127 157.023 311.989 164.194 312.822 171.128C314.506 185.135 316.233 199.555 309.546 213.784C308.507 211.938 307.503 209.924 306.584 207.694C305.753 205.68 303.948 202.443 301.45 197.964C291.729 180.53 268.963 139.705 280.617 123.045C284.088 118.085 292.897 112.988 315.011 115.732ZM288.207 21.8668C320.617 22.5827 346.254 34.7072 364.406 57.9018C378.328 75.693 362.997 156.646 318.617 226.484C318.179 225.927 317.733 225.365 317.271 224.788C317.087 224.557 316.899 224.323 316.71 224.086C328.178 205.146 325.935 186.407 323.939 169.793C323.119 162.975 322.345 156.535 322.542 150.486C322.745 144.073 323.593 138.576 324.412 133.258C325.421 126.705 326.446 119.926 326.163 111.933C326.374 111.095 326.459 110.104 326.349 108.928C325.627 101.263 316.877 78.3265 299.041 57.5632C289.285 46.2084 275.057 33.5001 255.632 24.9287C263.987 23.197 275.414 21.5821 288.207 21.8668ZM106.849 266.486C97.8859 277.263 91.6956 275.198 89.6603 274.52C76.3969 270.095 61.0084 242.064 47.4404 197.612C35.7003 159.149 28.8391 120.473 28.2966 109.627C26.582 75.3275 34.8965 51.4224 53.0101 38.5766C82.4884 17.6714 130.954 30.184 150.429 36.5305C150.148 36.8063 149.857 37.065 149.58 37.3452C117.623 69.6195 118.381 124.761 118.46 128.131C118.457 129.431 118.566 131.272 118.716 133.805C119.265 143.079 120.288 160.34 117.555 179.888C115.014 198.053 120.613 215.833 132.915 228.668C134.189 229.996 135.518 231.244 136.891 232.417C131.415 238.282 119.515 251.249 106.849 266.486ZM140.999 220.921C131.084 210.576 126.581 196.187 128.643 181.439C131.53 160.788 130.464 142.804 129.892 133.142C129.812 131.791 129.741 130.606 129.699 129.671C134.367 125.532 156.002 113.939 171.43 117.475C178.472 119.088 182.76 123.881 184.544 132.128C193.776 174.822 185.767 192.616 179.331 206.915C178.004 209.861 176.752 212.646 175.681 215.527L174.852 217.754C172.752 223.384 170.798 228.619 169.588 233.59C159.048 233.558 148.795 229.056 140.999 220.921ZM142.616 278.499C139.539 277.73 136.771 276.394 135.147 275.287C136.503 274.648 138.917 273.78 143.104 272.918C163.366 268.746 166.494 265.803 173.328 257.126C174.895 255.138 176.671 252.883 179.13 250.136C179.131 250.134 179.132 250.133 179.133 250.132C182.796 246.031 184.471 246.726 187.51 247.987C189.973 249.006 192.371 252.092 193.344 255.489C193.803 257.093 194.321 260.139 192.63 262.507C178.355 282.494 157.555 282.237 142.616 278.499ZM248.654 377.174C223.866 382.485 215.09 369.837 209.307 355.379C205.574 346.045 203.74 303.953 205.042 257.471C205.059 256.852 204.971 256.255 204.8 255.694C204.652 254.61 204.424 253.513 204.107 252.409C202.171 245.646 197.455 239.988 191.796 237.643C189.548 236.712 185.421 235.002 180.462 236.271C181.52 231.914 183.354 226.994 185.342 221.666L186.176 219.424C187.116 216.898 188.293 214.281 189.54 211.511C196.274 196.549 205.498 176.057 195.488 129.762C191.738 112.422 179.217 103.955 160.236 105.921C148.856 107.099 138.446 111.69 133.254 114.323C132.137 114.889 131.116 115.435 130.162 115.967C131.611 98.496 137.087 65.8463 157.569 45.189C170.464 32.1833 187.639 25.7605 208.565 26.1063C249.796 26.7817 276.236 47.941 291.157 65.5732C304.015 80.7677 310.977 96.0727 313.756 104.327C292.86 102.203 278.648 106.328 271.443 116.628C255.77 139.032 280.018 182.518 291.672 203.417C293.809 207.248 295.654 210.558 296.234 211.964C300.029 221.161 304.942 227.301 308.529 231.784C309.628 233.158 310.695 234.49 311.506 235.653C305.178 237.478 293.81 241.693 294.845 262.765C294.01 273.339 288.068 322.844 285.05 340.334C281.065 363.44 272.562 372.048 248.654 377.174ZM352.117 258.773C345.645 261.777 334.815 264.031 324.527 264.514C313.163 265.047 307.378 263.241 306.018 262.131C305.378 249 310.267 247.627 315.44 246.175C316.252 245.946 317.046 245.724 317.811 245.456C318.287 245.843 318.808 246.228 319.378 246.604C328.512 252.633 344.803 253.283 367.801 248.536C367.885 248.518 367.97 248.502 368.053 248.485C364.952 251.385 359.644 255.278 352.117 258.773Z" fill="white"/>
</svg>
