<svg width="400" height="400" viewBox="0 0 400 400" fill="none" xmlns="http://www.w3.org/2000/svg">
<path d="M363.439 304.743L225.88 12.6179C222.398 5.29372 215.181 0.468119 207.082 0.049009C198.964 -0.494886 191.218 3.52094 186.984 10.4681L37.7866 252.117C33.1548 259.567 33.2523 269.023 38.0365 276.375L110.98 389.336C116.648 398.044 127.369 401.987 137.328 399.025L349.01 336.41C355.459 334.525 360.773 329.936 363.579 323.831C366.346 317.756 366.299 310.77 363.449 304.733L363.439 304.743ZM332.641 317.272L153.017 370.387C147.537 372.017 142.278 367.268 143.418 361.738L207.592 54.4544C208.792 48.7048 216.731 47.7949 219.241 53.1145L338.041 305.393C339.104 307.668 339.117 310.295 338.076 312.58C337.035 314.865 335.045 316.58 332.631 317.272H332.641Z" fill="black"/>
</svg>
