<svg width="512" height="400" viewBox="0 0 512 400" fill="none" xmlns="http://www.w3.org/2000/svg">
<g clip-path="url(#clip0_7:192)">
<path d="M376.818 261.744L391.609 224.341H434.316L414.049 167.602L439.397 103.5L512 296.269H458.458L446.051 261.744H376.818Z" fill="#3D3D3D"/>
<path d="M331.14 296.27L408.863 103.5L357.335 103.501L304.168 228.072L266.361 103.501H226.754L186.159 228.072L157.531 171.308L131.623 251.125L157.927 296.27H208.637L245.321 184.556L280.297 296.27H331.14Z" fill="#5A0FC8"/>
<path d="M48.9117 230.095H80.6502C90.2644 230.095 98.8254 229.022 106.333 226.876L114.541 201.588L137.481 130.914C135.734 128.143 133.738 125.524 131.495 123.056C119.716 110.018 102.484 103.5 79.7959 103.5H0V296.269H48.9117V230.095ZM90.9225 147.848C95.5231 152.479 97.8232 158.675 97.8232 166.438C97.8232 174.26 95.8001 180.464 91.7542 185.049C87.3188 190.144 79.1517 192.691 67.2535 192.691H48.9117V140.903H67.3883C78.4774 140.903 86.3221 143.218 90.9225 147.848Z" fill="#3D3D3D"/>
</g>
<defs>
<clipPath id="clip0_7:192">
<rect width="512" height="193" fill="white" transform="translate(0 103.5)"/>
</clipPath>
</defs>
</svg>
