<svg width="400" height="400" viewBox="0 0 400 400" fill="none" xmlns="http://www.w3.org/2000/svg">
<path d="M328.88 137.406C324.731 135.978 320.431 134.627 316.004 133.349C316.732 130.379 317.399 127.448 317.993 124.566C327.74 77.252 321.367 39.1353 299.605 26.5857C278.738 14.5523 244.611 27.0991 210.145 57.094C206.831 59.9783 203.507 63.032 200.185 66.2324C197.972 64.115 195.762 62.0687 193.557 60.1114C157.436 28.0389 121.229 14.5231 99.4884 27.109C78.6412 39.1773 72.4675 75.0106 81.2414 119.851C82.0887 124.182 83.0791 128.605 84.1991 133.102C79.0748 134.556 74.1279 136.107 69.3946 137.757C27.0458 152.521 0 175.661 0 199.663C0 224.453 29.0337 249.317 73.1432 264.393C76.6241 265.583 80.2361 266.708 83.9584 267.776C82.7502 272.64 81.6992 277.406 80.8171 282.054C72.4511 326.116 78.9844 361.103 99.7761 373.095C121.252 385.479 157.295 372.75 192.391 342.071C195.165 339.646 197.949 337.074 200.738 334.379C204.352 337.86 207.962 341.154 211.551 344.244C245.546 373.498 279.122 385.311 299.894 373.285C321.349 360.865 328.321 323.281 319.269 277.554C318.578 274.062 317.773 270.494 316.87 266.863C319.401 266.114 321.886 265.342 324.309 264.539C370.165 249.345 400 224.784 400 199.663C400 175.574 372.082 152.278 328.88 137.406ZM318.934 248.319C316.747 249.043 314.503 249.743 312.216 250.421C307.154 234.395 300.321 217.353 291.961 199.746C299.939 182.559 306.507 165.735 311.428 149.813C315.52 150.997 319.491 152.246 323.318 153.564C360.333 166.306 382.912 185.146 382.912 199.663C382.912 215.126 358.528 235.199 318.934 248.319ZM302.506 280.872C306.509 301.092 307.08 319.374 304.429 333.665C302.047 346.506 297.256 355.068 291.332 358.497C278.726 365.793 251.768 356.309 222.696 331.291C219.363 328.423 216.006 325.361 212.638 322.12C223.909 309.793 235.173 295.463 246.167 279.547C265.504 277.832 283.773 275.026 300.341 271.196C301.157 274.488 301.881 277.716 302.506 280.872ZM136.369 357.236C124.053 361.586 114.244 361.71 108.314 358.291C95.6971 351.014 90.4518 322.923 97.6066 285.241C98.4261 280.926 99.4016 276.493 100.526 271.962C116.912 275.585 135.047 278.193 154.43 279.764C165.498 295.337 177.088 309.652 188.768 322.186C186.216 324.649 183.674 326.995 181.146 329.205C165.627 342.77 150.075 352.395 136.369 357.236ZM78.6697 248.224C59.1653 241.558 43.0579 232.893 32.017 223.439C22.096 214.942 17.0872 206.507 17.0872 199.663C17.0872 185.098 38.8023 166.52 75.0193 153.892C79.4137 152.36 84.0139 150.916 88.7879 149.56C93.7932 165.842 100.359 182.865 108.283 200.079C100.257 217.548 93.5974 234.843 88.5429 251.315C85.1396 250.337 81.8424 249.308 78.6697 248.224ZM98.011 116.569C90.4938 78.1512 95.4863 49.1702 108.049 41.8979C121.431 34.1507 151.023 45.1965 182.211 72.8896C184.204 74.6596 186.206 76.5122 188.213 78.4289C176.591 90.908 165.107 105.115 154.138 120.597C135.325 122.34 117.317 125.141 100.761 128.892C99.7198 124.705 98.7978 120.591 98.011 116.569ZM270.553 159.174C266.595 152.337 262.532 145.663 258.389 139.17C271.152 140.783 283.38 142.925 294.863 145.546C291.415 156.595 287.118 168.147 282.06 179.989C278.432 173.101 274.594 166.155 270.553 159.174ZM200.191 90.641C208.073 99.18 215.966 108.714 223.729 119.057C215.906 118.688 207.986 118.496 200 118.496C192.09 118.496 184.228 118.684 176.453 119.047C184.224 108.799 192.186 99.2782 200.191 90.641ZM129.378 159.292C125.424 166.148 121.658 173.056 118.086 179.976C113.11 168.175 108.853 156.57 105.376 145.365C116.788 142.811 128.959 140.723 141.64 139.14C137.439 145.692 133.342 152.417 129.378 159.291V159.292ZM142.005 261.405C128.903 259.943 116.55 257.963 105.14 255.479C108.673 244.074 113.024 232.221 118.106 220.166C121.686 227.081 125.468 233.992 129.446 240.863H129.446C133.498 247.862 137.696 254.719 142.005 261.405ZM200.664 309.89C192.565 301.151 184.486 291.485 176.597 281.088C184.256 281.389 192.064 281.542 200 281.542C208.153 281.542 216.213 281.359 224.146 281.006C216.357 291.59 208.492 301.271 200.664 309.89ZM282.223 219.551C287.57 231.737 292.077 243.528 295.655 254.739C284.057 257.384 271.536 259.515 258.342 261.099C262.495 254.519 266.594 247.729 270.621 240.745C274.696 233.679 278.565 226.603 282.223 219.551ZM255.82 232.208C249.567 243.05 243.148 253.399 236.631 263.169C224.761 264.017 212.498 264.455 200 264.455C187.552 264.455 175.444 264.068 163.784 263.311C157.005 253.414 150.446 243.034 144.233 232.302H144.234C138.038 221.599 132.335 210.806 127.167 200.073C132.333 189.316 138.022 178.51 144.182 167.827L144.181 167.829C150.358 157.117 156.86 146.787 163.576 136.952C175.473 136.053 187.671 135.584 199.999 135.584H200C212.384 135.584 224.598 136.056 236.49 136.963C243.105 146.727 249.562 157.023 255.763 167.737C262.035 178.57 267.797 189.304 273.007 199.83C267.813 210.538 262.064 221.38 255.82 232.208ZM291.07 41.3895C304.465 49.1139 309.674 80.2666 301.258 121.117C300.721 123.724 300.116 126.379 299.46 129.07C282.865 125.24 264.844 122.391 245.977 120.621C234.986 104.969 223.596 90.74 212.164 78.4211C215.237 75.4641 218.307 72.6446 221.363 69.9839C250.894 44.2845 278.495 34.1378 291.07 41.3895ZM200 163.944C219.727 163.944 235.719 179.936 235.719 199.663C235.719 219.39 219.727 235.382 200 235.382C180.273 235.382 164.281 219.39 164.281 199.663C164.281 179.936 180.273 163.944 200 163.944Z" fill="#00D8FF"/>
</svg>
