<svg width="400" height="400" viewBox="0 0 400 400" fill="none" xmlns="http://www.w3.org/2000/svg">
<g clip-path="url(#clip0_7:305)">
<path d="M384.328 292.099C362.982 303.226 252.4 348.693 228.857 360.965C205.316 373.24 192.237 373.122 173.64 364.231C155.042 355.34 37.3637 307.806 16.1661 297.674C5.57049 292.61 0 288.336 0 284.299V243.868C0 243.868 153.202 210.515 177.935 201.643C202.667 192.769 211.249 192.449 232.296 200.158C253.345 207.87 379.198 230.577 400 238.196C400 238.196 399.991 274.306 399.991 278.055C399.994 282.052 395.194 286.436 384.328 292.099Z" fill="#912626"/>
<path d="M384.32 251.906C362.975 263.028 252.397 308.497 228.855 320.769C205.314 333.045 192.236 332.925 173.639 324.034C155.041 315.15 37.3674 267.608 16.1705 257.481C-5.02631 247.348 -5.47163 240.375 15.3518 232.222C36.1736 224.066 153.202 178.152 177.938 169.278C202.669 160.408 211.248 160.085 232.295 167.797C253.344 175.506 363.262 219.258 384.062 226.875C404.867 234.502 405.665 240.78 384.32 251.906Z" fill="#C6302B"/>
<path d="M384.328 226.679C362.982 237.806 252.4 283.273 228.857 295.55C205.316 307.82 192.237 307.702 173.64 298.811C155.041 289.924 37.3637 242.385 16.1661 232.254C5.57049 227.19 0 222.921 0 218.883V178.447C0 178.447 153.202 145.096 177.935 136.223C202.667 127.351 211.249 127.029 232.296 134.738C253.345 142.449 379.198 165.152 400 172.772C400 172.772 399.991 208.883 399.991 212.636C399.994 216.631 395.194 221.016 384.328 226.679Z" fill="#912626"/>
<path d="M384.32 186.486C362.975 197.611 252.397 243.077 228.855 255.353C205.314 267.625 192.236 267.505 173.639 258.614C155.041 249.73 37.3674 202.189 16.1705 192.061C-5.02631 181.931 -5.47163 174.957 15.3518 166.8C36.1736 158.649 153.202 112.732 177.938 103.86C202.669 94.9878 211.248 94.666 232.295 102.377C253.344 110.086 363.262 153.835 384.062 161.455C404.867 169.078 405.665 175.36 384.32 186.485V186.486Z" fill="#C6302B"/>
<path d="M384.328 158.832C362.982 169.959 252.4 215.428 228.857 227.705C205.316 239.977 192.237 239.857 173.64 230.966C155.041 222.079 37.3637 174.539 16.1661 164.41C5.57049 159.345 0 155.074 0 151.04V110.603C0 110.603 153.202 77.253 177.935 68.3809C202.667 59.5072 211.249 59.1868 232.296 66.8965C253.345 74.6076 379.198 97.3099 400 104.93C400 104.93 399.991 141.041 399.991 144.793C399.994 148.785 395.194 153.169 384.328 158.832Z" fill="#912626"/>
<path d="M384.32 118.64C362.975 129.765 252.397 175.233 228.855 187.507C205.314 199.779 192.236 199.658 173.639 190.771C155.042 181.883 37.3674 134.346 16.1705 124.216C-5.02631 114.087 -5.47163 107.11 15.3518 98.9553C36.1736 90.8022 153.202 44.8897 177.938 36.0147C202.669 27.1413 211.248 26.8226 232.295 34.5335C253.344 42.2444 363.262 85.9928 384.062 93.6131C404.867 101.232 405.665 107.515 384.32 118.64Z" fill="#C6302B"/>
<path d="M248.88 79.3079L214.49 82.8785L206.791 101.403L194.356 80.7312L154.646 77.1622L184.277 66.4769L175.387 50.0738L203.128 60.9234L229.281 52.3606L222.213 69.3219L248.88 79.3079Z" fill="white"/>
<path d="M204.737 169.179L140.554 142.559L232.524 128.443L204.737 169.179Z" fill="white"/>
<path d="M115.753 89.6041C142.901 89.6041 164.909 98.1358 164.909 108.658C164.909 119.182 142.901 127.713 115.753 127.713C88.6052 127.713 66.5959 119.182 66.5959 108.658C66.5959 98.1358 88.6052 89.6041 115.753 89.6041Z" fill="white"/>
<path d="M289.523 84.3715L343.954 105.882L289.569 127.37L289.523 84.3715Z" fill="#621B1C"/>
<path d="M229.304 108.192L289.523 84.3715L289.57 127.37L283.666 129.68L229.304 108.192Z" fill="#9A2928"/>
</g>
<defs>
<clipPath id="clip0_7:305">
<rect width="400" height="343.75" fill="white" transform="translate(0 28.125)"/>
</clipPath>
</defs>
</svg>
