<svg width="400" height="400" viewBox="0 0 400 400" fill="none" xmlns="http://www.w3.org/2000/svg">
<path d="M277.158 275.337C291.919 273.81 303.118 261.084 302.609 245.813C302.1 230.542 289.374 218.325 274.104 218.325H273.086C257.306 218.834 245.09 232.069 245.599 247.849C246.108 255.485 249.162 262.102 253.743 266.684C236.436 300.789 209.968 325.732 170.264 346.602C143.286 360.855 115.29 365.946 87.2945 362.382C64.3887 359.328 46.5731 349.147 35.3748 332.349C19.0862 307.406 17.5592 280.428 31.3026 253.449C40.9739 234.105 56.2444 219.852 65.9158 212.726C63.8797 206.108 60.8256 194.91 59.2985 186.765C-14.5089 240.214 -6.87364 312.497 15.5231 346.602C32.3206 372.054 66.4248 387.834 104.092 387.834C114.272 387.834 124.453 386.816 134.633 384.271C199.787 371.545 249.162 332.858 277.158 275.337ZM366.745 212.217C328.059 166.913 271.05 141.97 205.895 141.97H197.751C193.17 132.807 183.499 126.699 172.809 126.699H171.791C156.012 127.208 143.795 140.443 144.304 156.223C144.813 171.494 157.539 183.711 172.809 183.711H173.827C185.026 183.202 194.697 176.075 198.769 166.404H207.931C246.617 166.404 283.266 177.602 316.352 199.491C341.803 216.289 360.127 238.178 370.308 264.647C378.961 286.027 378.452 306.897 369.29 324.714C355.037 351.693 331.114 366.455 299.554 366.455C279.194 366.455 259.851 360.346 249.671 355.765C244.072 360.855 233.891 369 226.765 374.09C248.653 384.271 271.05 389.87 292.428 389.87C341.294 389.87 377.434 362.891 391.178 335.912C405.939 306.388 404.921 255.485 366.745 212.217ZM108.164 283.991C108.673 299.262 121.399 311.479 136.669 311.479H137.687C153.467 310.97 165.683 297.735 165.174 281.955C164.665 266.684 151.94 254.467 136.669 254.467H135.651C134.633 254.467 133.106 254.467 132.088 254.976C111.218 220.361 102.565 182.693 105.619 141.97C107.655 111.428 117.835 84.958 135.651 63.0695C150.413 44.2352 178.917 35.0726 198.26 34.5635C252.216 33.5454 275.122 100.738 276.649 127.717C283.266 129.244 294.464 132.807 302.1 135.353C295.991 52.8888 245.09 10.1298 196.224 10.1298C150.413 10.1298 108.164 43.2171 91.3666 92.0845C67.9518 157.241 83.2223 219.852 111.727 269.229C109.182 272.792 107.655 278.391 108.164 283.991Z" fill="#764ABC"/>
</svg>
