<svg width="534" height="400" viewBox="0 0 534 400" fill="none" xmlns="http://www.w3.org/2000/svg">
<g clip-path="url(#clip0_7:211)">
<path d="M459.278 229.944C440.67 230.042 424.498 234.523 410.956 241.148C405.988 231.308 401.019 222.54 400.142 216.11C399.168 208.609 397.999 204.03 399.168 195.067C400.337 186.104 405.598 173.342 405.501 172.367C405.403 171.393 404.332 166.814 393.615 166.717C382.899 166.619 373.643 168.763 372.572 171.588C371.5 174.413 369.454 180.843 368.09 187.468C366.239 197.21 346.657 231.99 335.453 250.208C331.849 243.097 328.731 236.861 328.049 231.893C327.075 224.391 325.906 219.812 327.075 210.849C328.244 201.887 333.505 189.124 333.408 188.15C333.31 187.176 332.239 182.597 321.522 182.499C310.805 182.402 301.55 184.545 300.479 187.37C299.407 190.196 298.238 196.821 295.997 203.25C293.756 209.68 267.744 267.745 260.925 282.748C257.418 290.444 254.397 296.582 252.254 300.771C252.254 300.771 252.157 301.063 251.864 301.55C250.013 305.155 248.942 307.104 248.942 307.104C248.942 307.104 248.942 307.104 248.942 307.201C247.48 309.831 245.922 312.267 245.142 312.267C244.558 312.267 243.486 305.252 245.337 295.705C249.234 275.538 258.489 244.168 258.392 243.097C258.392 242.512 260.145 237.056 252.352 234.231C244.753 231.406 242.025 236.082 241.343 236.082C240.661 236.082 240.174 237.738 240.174 237.738C240.174 237.738 248.649 202.471 224.001 202.471C208.609 202.471 187.37 219.325 176.849 234.523C170.224 238.128 156.097 245.824 140.997 254.105C135.249 257.32 129.306 260.535 123.753 263.555C123.363 263.166 122.974 262.679 122.584 262.289C92.7724 230.432 37.6309 207.927 39.969 165.158C40.8458 149.57 46.2041 108.653 145.868 58.9667C227.898 18.5361 293.172 29.7398 304.473 54.5827C320.645 90.0447 269.498 155.903 184.74 165.45C152.395 169.055 135.444 156.585 131.157 151.908C126.676 147.037 125.994 146.745 124.337 147.719C121.61 149.181 123.363 153.565 124.337 156.098C126.871 162.722 137.295 174.413 154.928 180.161C170.516 185.227 208.414 188.052 254.3 170.321C305.642 150.447 345.78 95.2081 333.992 48.9321C322.204 1.97416 244.265 -13.5161 170.516 12.6907C126.676 28.2784 79.1331 52.8291 44.9376 84.7839C4.31216 122.779 -2.11777 155.805 0.512659 169.639C9.96271 218.741 77.6718 250.696 104.755 274.369C103.392 275.149 102.125 275.831 101.053 276.415C87.5115 283.137 35.8773 310.124 23.0174 338.669C8.40394 371.013 25.3556 394.2 36.5592 397.317C71.3393 406.962 107.094 389.621 126.286 360.979C145.478 332.336 143.14 295.12 134.275 278.071C134.177 277.877 134.08 277.682 133.885 277.487C137.392 275.441 140.997 273.298 144.504 271.252C151.421 267.16 158.241 263.361 164.086 260.243C160.774 269.303 158.338 280.117 157.169 295.705C155.708 314.021 163.209 337.792 173.049 347.144C177.433 351.236 182.597 351.334 185.909 351.334C197.405 351.334 202.568 341.786 208.316 330.485C215.331 316.651 221.663 300.576 221.663 300.576C221.663 300.576 213.772 344.027 235.205 344.027C242.999 344.027 250.89 333.895 254.397 328.731V328.829C254.397 328.829 254.592 328.537 254.982 327.855C255.761 326.588 256.248 325.809 256.248 325.809V325.614C259.366 320.158 266.38 307.785 276.805 287.229C290.249 260.73 303.206 227.606 303.206 227.606C303.206 227.606 304.375 235.692 308.37 249.137C310.708 257.028 315.579 265.699 319.476 274.077C316.359 278.461 314.41 280.897 314.41 280.897C314.41 280.897 314.41 280.897 314.508 280.994C311.975 284.306 309.247 287.911 306.227 291.418C295.607 304.083 282.942 318.599 281.189 322.789C279.143 327.757 279.63 331.362 283.527 334.285C286.352 336.428 291.418 336.72 296.582 336.428C306.129 335.746 312.851 333.408 316.164 331.946C321.327 330.095 327.367 327.27 333.018 323.081C343.442 315.384 349.775 304.376 349.19 289.86C348.898 281.871 346.267 273.882 343.053 266.381C344.027 265.017 344.904 263.653 345.878 262.289C362.342 238.225 375.105 211.824 375.105 211.824C375.105 211.824 376.274 219.91 380.268 233.354C382.217 240.174 386.211 247.578 389.718 254.787C374.228 267.355 364.68 281.968 361.271 291.516C355.133 309.247 359.907 317.236 368.967 319.087C373.059 319.963 378.904 318.015 383.191 316.164C388.647 314.41 395.076 311.39 401.214 306.909C411.638 299.212 421.673 288.496 421.088 273.98C420.796 267.355 419.043 260.828 416.607 254.495C429.759 249.039 446.711 246.019 468.339 248.552C514.712 254.008 523.87 282.943 522.116 295.12C520.363 307.298 510.62 313.923 507.405 315.969C504.19 318.015 503.119 318.697 503.411 320.158C503.801 322.302 505.359 322.204 508.087 321.814C511.887 321.132 532.443 311.975 533.32 289.567C534.781 260.925 507.503 229.652 459.278 229.944ZM101.54 350.554C86.1476 367.311 64.7145 373.644 55.4593 368.285C45.5222 362.537 49.4191 337.792 68.3192 320.061C79.8151 309.247 94.6234 299.212 104.463 293.075C106.704 291.711 110.016 289.762 114.011 287.327C114.693 286.937 115.082 286.742 115.082 286.742C115.862 286.255 116.641 285.768 117.42 285.281C124.338 310.611 117.713 332.921 101.54 350.554ZM213.577 274.369C208.219 287.424 197.015 320.84 190.196 318.989C184.35 317.43 180.746 292.1 189.026 267.063C193.216 254.495 202.081 239.492 207.245 233.646C215.623 224.294 224.878 221.176 227.119 224.976C229.944 229.944 216.889 266.186 213.577 274.369ZM306.032 318.599C303.791 319.769 301.648 320.548 300.673 319.963C299.991 319.574 301.648 318.015 301.648 318.015C301.648 318.015 313.241 305.545 317.82 299.894C320.45 296.582 323.568 292.685 326.88 288.301V289.567C326.88 304.473 312.462 314.508 306.032 318.599ZM377.345 302.33C375.689 301.161 375.982 297.264 381.535 285.086C383.678 280.312 388.744 272.323 397.415 264.627C398.389 267.745 399.071 270.765 398.973 273.59C398.876 292.393 385.432 299.407 377.345 302.33Z" fill="#CD6799"/>
</g>
<defs>
<clipPath id="clip0_7:211">
<rect width="533.376" height="400" fill="white"/>
</clipPath>
</defs>
</svg>
