<svg width="400" height="400" viewBox="0 0 400 400" fill="none" xmlns="http://www.w3.org/2000/svg">
<path d="M149.348 6.5137C201.103 -6.75929 258.301 0.975329 303.944 29.1446C361.429 63.5207 398.956 128.549 399.911 195.487C402.012 263.093 366.776 330.126 310.151 366.89C247.128 409.287 159.947 410.91 95.5872 370.614C29.9862 331.463 -8.30489 252.494 1.53049 176.675C9.45608 96.5599 71.333 25.898 149.348 6.5137Z" fill="#010101"/>
<path d="M141.422 39.2664C239.203 0.11592 359.137 72.4012 369.259 177.248C385.015 271.591 306.714 367.462 211.129 370.232C120.223 379.303 32.3735 302.243 29.7952 210.956C23.0155 137.047 71.715 63.7117 141.422 39.2664Z" fill="white"/>
<path d="M151.257 189.853C195.087 154.044 237.962 116.995 282.746 82.2365C259.256 118.331 235.097 153.949 211.607 190.044C191.458 190.139 171.31 190.139 151.257 189.853Z" fill="#010101"/>
<path d="M188.307 209.81C208.551 209.81 228.699 209.81 248.847 210.096C204.731 245.714 162.048 283.05 117.168 317.713C140.658 281.618 164.817 245.905 188.307 209.81Z" fill="#010101"/>
</svg>
