<svg width="400" height="400" viewBox="0 0 400 400" fill="none" xmlns="http://www.w3.org/2000/svg">
<path d="M391.627 2.52563H127.915V134.749H257.674C262.296 134.749 266.047 138.499 266.047 143.122V271.09H400V10.914C400.004 8.69065 399.123 6.55701 397.553 4.98345C395.982 3.40989 393.85 2.52563 391.627 2.52563Z" fill="#8E75FF"/>
<path opacity="0.405" d="M127.899 2.52563V134.749H4.18686C2.48688 134.746 0.956854 133.717 0.312793 132.144C-0.331268 130.571 0.0380348 128.764 1.24788 127.57L127.899 2.52563ZM273.18 396.272C271.976 397.455 270.179 397.801 268.622 397.149C267.065 396.497 266.05 394.976 266.047 393.287V271.09H400L273.18 396.257V396.272Z" fill="#8E75FF"/>
<path opacity="0.405" d="M127.899 134.749H261.868C264.164 134.749 266.047 136.617 266.047 138.928V271.09H136.288C131.663 271.09 127.915 267.341 127.915 262.717V134.749H127.899Z" fill="#8E75FF"/>
</svg>
