<svg width="400" height="400" viewBox="0 0 400 400" fill="none" xmlns="http://www.w3.org/2000/svg">
<path d="M232.861 393.354C222.642 406.223 201.923 399.172 201.677 382.741L198.076 142.413H359.672C388.942 142.413 405.266 176.219 387.066 199.142L232.861 393.354Z" fill="url(#paint0_linear_8:403)"/>
<path d="M232.861 393.354C222.642 406.223 201.923 399.172 201.677 382.741L198.076 142.413H359.672C388.942 142.413 405.266 176.219 387.066 199.142L232.861 393.354Z" fill="url(#paint1_linear_8:403)" fill-opacity="0.2"/>
<path d="M167.14 6.64632C177.359 -6.22358 198.078 0.8282 198.325 17.2598L199.902 257.587H40.3284C11.0581 257.587 -5.26649 223.781 12.9347 200.858L167.14 6.64632Z" fill="#3ECF8E"/>
<defs>
<linearGradient id="paint0_linear_8:403" x1="198.076" y1="195.7" x2="341.697" y2="255.934" gradientUnits="userSpaceOnUse">
<stop stop-color="#249361"/>
<stop offset="1" stop-color="#3ECF8E"/>
</linearGradient>
<linearGradient id="paint1_linear_8:403" x1="134.402" y1="108.518" x2="199.901" y2="231.816" gradientUnits="userSpaceOnUse">
<stop/>
<stop offset="1" stop-opacity="0"/>
</linearGradient>
</defs>
</svg>
