<svg width="400" height="400" viewBox="0 0 400 400" fill="none" xmlns="http://www.w3.org/2000/svg">
<path d="M200 80C146.667 80 113.333 106.667 100 160C120 133.333 143.333 123.333 170 130C185.215 133.804 196.09 144.841 208.127 157.06C227.736 176.964 250.43 200 300 200C353.333 200 386.667 173.333 400 120C380 146.667 356.667 156.667 330 150C314.785 146.196 303.91 135.159 291.873 122.94C272.264 103.036 249.57 80 200 80ZM100 200C46.6667 200 13.3333 226.667 0 280C20 253.333 43.3333 243.333 70 250C85.2148 253.804 96.0896 264.841 108.127 277.06C127.736 296.964 150.43 320 200 320C253.333 320 286.667 293.333 300 240C280 266.667 256.667 276.667 230 270C214.785 266.196 203.91 255.159 191.873 242.94C172.264 223.036 149.57 200 100 200Z" fill="url(#paint0_linear_7:52)"/>
<defs>
<linearGradient id="paint0_linear_7:52" x1="-11.1111" y1="156.8" x2="334.354" y2="355.987" gradientUnits="userSpaceOnUse">
<stop stop-color="#2298BD"/>
<stop offset="1" stop-color="#0ED7B5"/>
</linearGradient>
</defs>
</svg>
