<svg width="400" height="400" viewBox="0 0 400 400" fill="none" xmlns="http://www.w3.org/2000/svg">
<path d="M400 75.9457C385.283 82.4726 369.466 86.8839 352.866 88.8679C369.81 78.711 382.822 62.6285 388.949 43.4661C373.093 52.8695 355.53 59.6993 336.837 63.3805C321.867 47.4311 300.539 37.4644 276.936 37.4644C231.613 37.4644 194.869 74.2075 194.869 119.527C194.869 125.959 195.596 132.223 196.995 138.229C128.79 134.807 68.3214 102.135 27.8459 52.4862C20.782 64.6066 16.7351 78.7037 16.7351 93.743C16.7351 122.214 31.2243 147.332 53.2441 162.048C39.7908 161.623 27.1378 157.931 16.0723 151.785C16.0664 152.127 16.0664 152.471 16.0664 152.816C16.0664 192.578 44.3542 225.746 81.8962 233.284C75.0093 235.16 67.7596 236.162 60.2743 236.162C54.9866 236.162 49.8453 235.649 44.8356 234.69C55.2778 267.294 85.5847 291.02 121.495 291.683C93.4094 313.693 58.0241 326.812 19.5764 326.812C12.9529 326.812 6.42013 326.424 0 325.667C36.3173 348.951 79.4543 362.536 125.798 362.536C276.745 362.536 359.287 237.488 359.287 129.043C359.287 125.485 359.208 121.946 359.05 118.427C375.083 106.857 388.997 92.4028 400 75.9457Z" fill="#55ACEE"/>
</svg>
