<svg width="400" height="400" viewBox="0 0 400 400" fill="none" xmlns="http://www.w3.org/2000/svg">
<path d="M0 200V400H200H400V200V0H200H0V200Z" fill="#007ACC"/>
<path d="M88.4546 201.327L88.3277 217.708L114.359 217.708H140.391V291.676V365.644H158.804H177.217V291.676L177.217 217.708H203.248H229.28V201.644C229.28 192.755 229.09 185.327 228.836 185.136C228.645 184.882 196.963 184.755 158.55 184.819L88.6451 185.009L88.4546 201.327Z" fill="white"/>
<path d="M322.761 184.544C332.919 187.084 340.666 191.592 347.777 198.957C351.459 202.893 356.919 210.068 357.364 211.782C357.491 212.29 340.094 223.973 329.554 230.512C329.173 230.766 327.65 229.116 325.935 226.576C320.793 219.084 315.396 215.846 307.142 215.274C295.015 214.449 287.205 220.798 287.269 231.401C287.269 234.512 287.713 236.354 288.983 238.893C291.65 244.417 296.602 247.719 312.158 254.449C340.792 266.766 353.046 274.893 360.666 286.449C369.173 299.338 371.078 319.909 365.3 335.211C358.951 351.846 343.205 363.147 321.046 366.893C314.189 368.1 297.935 367.909 290.57 366.576C274.507 363.719 259.269 355.782 249.872 345.37C246.189 341.306 239.015 330.703 239.459 329.941C239.65 329.687 241.3 328.671 243.142 327.592C244.92 326.576 251.65 322.703 257.999 319.02L269.491 312.354L271.904 315.909C275.269 321.052 282.634 328.1 287.078 330.449C299.84 337.179 317.364 336.227 325.999 328.481C329.681 325.116 331.205 321.624 331.205 316.481C331.205 311.846 330.634 309.814 328.221 306.322C325.11 301.878 318.761 298.131 300.729 290.322C280.094 281.433 271.205 275.909 263.078 267.147C258.38 262.068 253.935 253.941 252.094 247.147C250.57 241.497 250.189 227.338 251.396 221.624C255.65 201.687 270.697 187.782 292.412 183.655C299.459 182.322 315.84 182.83 322.761 184.544Z" fill="white"/>
</svg>
