<svg width="400" height="400" viewBox="0 0 400 400" fill="none" xmlns="http://www.w3.org/2000/svg">
<g clip-path="url(#clip0_7:271)">
<path d="M300.688 275.226H350.344V155.999L294.399 100.054L259.286 135.167L300.688 176.569V275.226ZM350.475 300.12H278.153H177.268L135.866 258.718L153.423 241.161L187.619 275.357H257.976L188.667 205.917L206.354 188.23L275.663 257.538V187.181L241.598 153.117L259.024 135.691L172.945 49.2188H88.0445H0L49.5251 98.7438V98.8748H49.7871H152.244L188.536 135.167L135.473 188.23L99.1811 151.937V123.768H49.5251V172.507L135.473 258.456L100.491 293.438L156.436 349.383H241.336H400L350.475 300.12Z" fill="#231F20"/>
</g>
<defs>
<clipPath id="clip0_7:271">
<rect width="400" height="301.562" fill="white" transform="translate(0 49.2188)"/>
</clipPath>
</defs>
</svg>
